%TF.GenerationSoftware,KiCad,Pcbnew,8.0.6-1.fc41*%
%TF.CreationDate,2024-12-08T17:17:20+02:00*%
%TF.ProjectId,logicanalyzer,6c6f6769-6361-46e6-916c-797a65722e6b,rev?*%
%TF.SameCoordinates,Original*%
%TF.FileFunction,Legend,Bot*%
%TF.FilePolarity,Positive*%
%FSLAX46Y46*%
G04 Gerber Fmt 4.6, Leading zero omitted, Abs format (unit mm)*
G04 Created by KiCad (PCBNEW 8.0.6-1.fc41) date 2024-12-08 17:17:20*
%MOMM*%
%LPD*%
G01*
G04 APERTURE LIST*
%ADD10C,0.150000*%
%ADD11C,0.120000*%
G04 APERTURE END LIST*
D10*
X59411666Y-73004819D02*
X59744999Y-72528628D01*
X59983094Y-73004819D02*
X59983094Y-72004819D01*
X59983094Y-72004819D02*
X59602142Y-72004819D01*
X59602142Y-72004819D02*
X59506904Y-72052438D01*
X59506904Y-72052438D02*
X59459285Y-72100057D01*
X59459285Y-72100057D02*
X59411666Y-72195295D01*
X59411666Y-72195295D02*
X59411666Y-72338152D01*
X59411666Y-72338152D02*
X59459285Y-72433390D01*
X59459285Y-72433390D02*
X59506904Y-72481009D01*
X59506904Y-72481009D02*
X59602142Y-72528628D01*
X59602142Y-72528628D02*
X59983094Y-72528628D01*
X59078332Y-72004819D02*
X58411666Y-72004819D01*
X58411666Y-72004819D02*
X58840237Y-73004819D01*
X53157857Y-108818819D02*
X53491190Y-108342628D01*
X53729285Y-108818819D02*
X53729285Y-107818819D01*
X53729285Y-107818819D02*
X53348333Y-107818819D01*
X53348333Y-107818819D02*
X53253095Y-107866438D01*
X53253095Y-107866438D02*
X53205476Y-107914057D01*
X53205476Y-107914057D02*
X53157857Y-108009295D01*
X53157857Y-108009295D02*
X53157857Y-108152152D01*
X53157857Y-108152152D02*
X53205476Y-108247390D01*
X53205476Y-108247390D02*
X53253095Y-108295009D01*
X53253095Y-108295009D02*
X53348333Y-108342628D01*
X53348333Y-108342628D02*
X53729285Y-108342628D01*
X52253095Y-107818819D02*
X52729285Y-107818819D01*
X52729285Y-107818819D02*
X52776904Y-108295009D01*
X52776904Y-108295009D02*
X52729285Y-108247390D01*
X52729285Y-108247390D02*
X52634047Y-108199771D01*
X52634047Y-108199771D02*
X52395952Y-108199771D01*
X52395952Y-108199771D02*
X52300714Y-108247390D01*
X52300714Y-108247390D02*
X52253095Y-108295009D01*
X52253095Y-108295009D02*
X52205476Y-108390247D01*
X52205476Y-108390247D02*
X52205476Y-108628342D01*
X52205476Y-108628342D02*
X52253095Y-108723580D01*
X52253095Y-108723580D02*
X52300714Y-108771200D01*
X52300714Y-108771200D02*
X52395952Y-108818819D01*
X52395952Y-108818819D02*
X52634047Y-108818819D01*
X52634047Y-108818819D02*
X52729285Y-108771200D01*
X52729285Y-108771200D02*
X52776904Y-108723580D01*
X51586428Y-107818819D02*
X51491190Y-107818819D01*
X51491190Y-107818819D02*
X51395952Y-107866438D01*
X51395952Y-107866438D02*
X51348333Y-107914057D01*
X51348333Y-107914057D02*
X51300714Y-108009295D01*
X51300714Y-108009295D02*
X51253095Y-108199771D01*
X51253095Y-108199771D02*
X51253095Y-108437866D01*
X51253095Y-108437866D02*
X51300714Y-108628342D01*
X51300714Y-108628342D02*
X51348333Y-108723580D01*
X51348333Y-108723580D02*
X51395952Y-108771200D01*
X51395952Y-108771200D02*
X51491190Y-108818819D01*
X51491190Y-108818819D02*
X51586428Y-108818819D01*
X51586428Y-108818819D02*
X51681666Y-108771200D01*
X51681666Y-108771200D02*
X51729285Y-108723580D01*
X51729285Y-108723580D02*
X51776904Y-108628342D01*
X51776904Y-108628342D02*
X51824523Y-108437866D01*
X51824523Y-108437866D02*
X51824523Y-108199771D01*
X51824523Y-108199771D02*
X51776904Y-108009295D01*
X51776904Y-108009295D02*
X51729285Y-107914057D01*
X51729285Y-107914057D02*
X51681666Y-107866438D01*
X51681666Y-107866438D02*
X51586428Y-107818819D01*
X59887857Y-89354819D02*
X60221190Y-88878628D01*
X60459285Y-89354819D02*
X60459285Y-88354819D01*
X60459285Y-88354819D02*
X60078333Y-88354819D01*
X60078333Y-88354819D02*
X59983095Y-88402438D01*
X59983095Y-88402438D02*
X59935476Y-88450057D01*
X59935476Y-88450057D02*
X59887857Y-88545295D01*
X59887857Y-88545295D02*
X59887857Y-88688152D01*
X59887857Y-88688152D02*
X59935476Y-88783390D01*
X59935476Y-88783390D02*
X59983095Y-88831009D01*
X59983095Y-88831009D02*
X60078333Y-88878628D01*
X60078333Y-88878628D02*
X60459285Y-88878628D01*
X58935476Y-89354819D02*
X59506904Y-89354819D01*
X59221190Y-89354819D02*
X59221190Y-88354819D01*
X59221190Y-88354819D02*
X59316428Y-88497676D01*
X59316428Y-88497676D02*
X59411666Y-88592914D01*
X59411666Y-88592914D02*
X59506904Y-88640533D01*
X58602142Y-88354819D02*
X57983095Y-88354819D01*
X57983095Y-88354819D02*
X58316428Y-88735771D01*
X58316428Y-88735771D02*
X58173571Y-88735771D01*
X58173571Y-88735771D02*
X58078333Y-88783390D01*
X58078333Y-88783390D02*
X58030714Y-88831009D01*
X58030714Y-88831009D02*
X57983095Y-88926247D01*
X57983095Y-88926247D02*
X57983095Y-89164342D01*
X57983095Y-89164342D02*
X58030714Y-89259580D01*
X58030714Y-89259580D02*
X58078333Y-89307200D01*
X58078333Y-89307200D02*
X58173571Y-89354819D01*
X58173571Y-89354819D02*
X58459285Y-89354819D01*
X58459285Y-89354819D02*
X58554523Y-89307200D01*
X58554523Y-89307200D02*
X58602142Y-89259580D01*
X59411666Y-75544819D02*
X59744999Y-75068628D01*
X59983094Y-75544819D02*
X59983094Y-74544819D01*
X59983094Y-74544819D02*
X59602142Y-74544819D01*
X59602142Y-74544819D02*
X59506904Y-74592438D01*
X59506904Y-74592438D02*
X59459285Y-74640057D01*
X59459285Y-74640057D02*
X59411666Y-74735295D01*
X59411666Y-74735295D02*
X59411666Y-74878152D01*
X59411666Y-74878152D02*
X59459285Y-74973390D01*
X59459285Y-74973390D02*
X59506904Y-75021009D01*
X59506904Y-75021009D02*
X59602142Y-75068628D01*
X59602142Y-75068628D02*
X59983094Y-75068628D01*
X58840237Y-74973390D02*
X58935475Y-74925771D01*
X58935475Y-74925771D02*
X58983094Y-74878152D01*
X58983094Y-74878152D02*
X59030713Y-74782914D01*
X59030713Y-74782914D02*
X59030713Y-74735295D01*
X59030713Y-74735295D02*
X58983094Y-74640057D01*
X58983094Y-74640057D02*
X58935475Y-74592438D01*
X58935475Y-74592438D02*
X58840237Y-74544819D01*
X58840237Y-74544819D02*
X58649761Y-74544819D01*
X58649761Y-74544819D02*
X58554523Y-74592438D01*
X58554523Y-74592438D02*
X58506904Y-74640057D01*
X58506904Y-74640057D02*
X58459285Y-74735295D01*
X58459285Y-74735295D02*
X58459285Y-74782914D01*
X58459285Y-74782914D02*
X58506904Y-74878152D01*
X58506904Y-74878152D02*
X58554523Y-74925771D01*
X58554523Y-74925771D02*
X58649761Y-74973390D01*
X58649761Y-74973390D02*
X58840237Y-74973390D01*
X58840237Y-74973390D02*
X58935475Y-75021009D01*
X58935475Y-75021009D02*
X58983094Y-75068628D01*
X58983094Y-75068628D02*
X59030713Y-75163866D01*
X59030713Y-75163866D02*
X59030713Y-75354342D01*
X59030713Y-75354342D02*
X58983094Y-75449580D01*
X58983094Y-75449580D02*
X58935475Y-75497200D01*
X58935475Y-75497200D02*
X58840237Y-75544819D01*
X58840237Y-75544819D02*
X58649761Y-75544819D01*
X58649761Y-75544819D02*
X58554523Y-75497200D01*
X58554523Y-75497200D02*
X58506904Y-75449580D01*
X58506904Y-75449580D02*
X58459285Y-75354342D01*
X58459285Y-75354342D02*
X58459285Y-75163866D01*
X58459285Y-75163866D02*
X58506904Y-75068628D01*
X58506904Y-75068628D02*
X58554523Y-75021009D01*
X58554523Y-75021009D02*
X58649761Y-74973390D01*
X52775857Y-58018819D02*
X53109190Y-57542628D01*
X53347285Y-58018819D02*
X53347285Y-57018819D01*
X53347285Y-57018819D02*
X52966333Y-57018819D01*
X52966333Y-57018819D02*
X52871095Y-57066438D01*
X52871095Y-57066438D02*
X52823476Y-57114057D01*
X52823476Y-57114057D02*
X52775857Y-57209295D01*
X52775857Y-57209295D02*
X52775857Y-57352152D01*
X52775857Y-57352152D02*
X52823476Y-57447390D01*
X52823476Y-57447390D02*
X52871095Y-57495009D01*
X52871095Y-57495009D02*
X52966333Y-57542628D01*
X52966333Y-57542628D02*
X53347285Y-57542628D01*
X52442523Y-57018819D02*
X51775857Y-57018819D01*
X51775857Y-57018819D02*
X52204428Y-58018819D01*
X51204428Y-57018819D02*
X51109190Y-57018819D01*
X51109190Y-57018819D02*
X51013952Y-57066438D01*
X51013952Y-57066438D02*
X50966333Y-57114057D01*
X50966333Y-57114057D02*
X50918714Y-57209295D01*
X50918714Y-57209295D02*
X50871095Y-57399771D01*
X50871095Y-57399771D02*
X50871095Y-57637866D01*
X50871095Y-57637866D02*
X50918714Y-57828342D01*
X50918714Y-57828342D02*
X50966333Y-57923580D01*
X50966333Y-57923580D02*
X51013952Y-57971200D01*
X51013952Y-57971200D02*
X51109190Y-58018819D01*
X51109190Y-58018819D02*
X51204428Y-58018819D01*
X51204428Y-58018819D02*
X51299666Y-57971200D01*
X51299666Y-57971200D02*
X51347285Y-57923580D01*
X51347285Y-57923580D02*
X51394904Y-57828342D01*
X51394904Y-57828342D02*
X51442523Y-57637866D01*
X51442523Y-57637866D02*
X51442523Y-57399771D01*
X51442523Y-57399771D02*
X51394904Y-57209295D01*
X51394904Y-57209295D02*
X51347285Y-57114057D01*
X51347285Y-57114057D02*
X51299666Y-57066438D01*
X51299666Y-57066438D02*
X51204428Y-57018819D01*
X59887857Y-83164819D02*
X60221190Y-82688628D01*
X60459285Y-83164819D02*
X60459285Y-82164819D01*
X60459285Y-82164819D02*
X60078333Y-82164819D01*
X60078333Y-82164819D02*
X59983095Y-82212438D01*
X59983095Y-82212438D02*
X59935476Y-82260057D01*
X59935476Y-82260057D02*
X59887857Y-82355295D01*
X59887857Y-82355295D02*
X59887857Y-82498152D01*
X59887857Y-82498152D02*
X59935476Y-82593390D01*
X59935476Y-82593390D02*
X59983095Y-82641009D01*
X59983095Y-82641009D02*
X60078333Y-82688628D01*
X60078333Y-82688628D02*
X60459285Y-82688628D01*
X58935476Y-83164819D02*
X59506904Y-83164819D01*
X59221190Y-83164819D02*
X59221190Y-82164819D01*
X59221190Y-82164819D02*
X59316428Y-82307676D01*
X59316428Y-82307676D02*
X59411666Y-82402914D01*
X59411666Y-82402914D02*
X59506904Y-82450533D01*
X57983095Y-83164819D02*
X58554523Y-83164819D01*
X58268809Y-83164819D02*
X58268809Y-82164819D01*
X58268809Y-82164819D02*
X58364047Y-82307676D01*
X58364047Y-82307676D02*
X58459285Y-82402914D01*
X58459285Y-82402914D02*
X58554523Y-82450533D01*
X53157857Y-126598819D02*
X53491190Y-126122628D01*
X53729285Y-126598819D02*
X53729285Y-125598819D01*
X53729285Y-125598819D02*
X53348333Y-125598819D01*
X53348333Y-125598819D02*
X53253095Y-125646438D01*
X53253095Y-125646438D02*
X53205476Y-125694057D01*
X53205476Y-125694057D02*
X53157857Y-125789295D01*
X53157857Y-125789295D02*
X53157857Y-125932152D01*
X53157857Y-125932152D02*
X53205476Y-126027390D01*
X53205476Y-126027390D02*
X53253095Y-126075009D01*
X53253095Y-126075009D02*
X53348333Y-126122628D01*
X53348333Y-126122628D02*
X53729285Y-126122628D01*
X52300714Y-125932152D02*
X52300714Y-126598819D01*
X52538809Y-125551200D02*
X52776904Y-126265485D01*
X52776904Y-126265485D02*
X52157857Y-126265485D01*
X51348333Y-125932152D02*
X51348333Y-126598819D01*
X51586428Y-125551200D02*
X51824523Y-126265485D01*
X51824523Y-126265485D02*
X51205476Y-126265485D01*
X52903857Y-78338819D02*
X53237190Y-77862628D01*
X53475285Y-78338819D02*
X53475285Y-77338819D01*
X53475285Y-77338819D02*
X53094333Y-77338819D01*
X53094333Y-77338819D02*
X52999095Y-77386438D01*
X52999095Y-77386438D02*
X52951476Y-77434057D01*
X52951476Y-77434057D02*
X52903857Y-77529295D01*
X52903857Y-77529295D02*
X52903857Y-77672152D01*
X52903857Y-77672152D02*
X52951476Y-77767390D01*
X52951476Y-77767390D02*
X52999095Y-77815009D01*
X52999095Y-77815009D02*
X53094333Y-77862628D01*
X53094333Y-77862628D02*
X53475285Y-77862628D01*
X52046714Y-77338819D02*
X52237190Y-77338819D01*
X52237190Y-77338819D02*
X52332428Y-77386438D01*
X52332428Y-77386438D02*
X52380047Y-77434057D01*
X52380047Y-77434057D02*
X52475285Y-77576914D01*
X52475285Y-77576914D02*
X52522904Y-77767390D01*
X52522904Y-77767390D02*
X52522904Y-78148342D01*
X52522904Y-78148342D02*
X52475285Y-78243580D01*
X52475285Y-78243580D02*
X52427666Y-78291200D01*
X52427666Y-78291200D02*
X52332428Y-78338819D01*
X52332428Y-78338819D02*
X52141952Y-78338819D01*
X52141952Y-78338819D02*
X52046714Y-78291200D01*
X52046714Y-78291200D02*
X51999095Y-78243580D01*
X51999095Y-78243580D02*
X51951476Y-78148342D01*
X51951476Y-78148342D02*
X51951476Y-77910247D01*
X51951476Y-77910247D02*
X51999095Y-77815009D01*
X51999095Y-77815009D02*
X52046714Y-77767390D01*
X52046714Y-77767390D02*
X52141952Y-77719771D01*
X52141952Y-77719771D02*
X52332428Y-77719771D01*
X52332428Y-77719771D02*
X52427666Y-77767390D01*
X52427666Y-77767390D02*
X52475285Y-77815009D01*
X52475285Y-77815009D02*
X52522904Y-77910247D01*
X51570523Y-77434057D02*
X51522904Y-77386438D01*
X51522904Y-77386438D02*
X51427666Y-77338819D01*
X51427666Y-77338819D02*
X51189571Y-77338819D01*
X51189571Y-77338819D02*
X51094333Y-77386438D01*
X51094333Y-77386438D02*
X51046714Y-77434057D01*
X51046714Y-77434057D02*
X50999095Y-77529295D01*
X50999095Y-77529295D02*
X50999095Y-77624533D01*
X50999095Y-77624533D02*
X51046714Y-77767390D01*
X51046714Y-77767390D02*
X51618142Y-78338819D01*
X51618142Y-78338819D02*
X50999095Y-78338819D01*
X59411666Y-70524819D02*
X59744999Y-70048628D01*
X59983094Y-70524819D02*
X59983094Y-69524819D01*
X59983094Y-69524819D02*
X59602142Y-69524819D01*
X59602142Y-69524819D02*
X59506904Y-69572438D01*
X59506904Y-69572438D02*
X59459285Y-69620057D01*
X59459285Y-69620057D02*
X59411666Y-69715295D01*
X59411666Y-69715295D02*
X59411666Y-69858152D01*
X59411666Y-69858152D02*
X59459285Y-69953390D01*
X59459285Y-69953390D02*
X59506904Y-70001009D01*
X59506904Y-70001009D02*
X59602142Y-70048628D01*
X59602142Y-70048628D02*
X59983094Y-70048628D01*
X58554523Y-69524819D02*
X58744999Y-69524819D01*
X58744999Y-69524819D02*
X58840237Y-69572438D01*
X58840237Y-69572438D02*
X58887856Y-69620057D01*
X58887856Y-69620057D02*
X58983094Y-69762914D01*
X58983094Y-69762914D02*
X59030713Y-69953390D01*
X59030713Y-69953390D02*
X59030713Y-70334342D01*
X59030713Y-70334342D02*
X58983094Y-70429580D01*
X58983094Y-70429580D02*
X58935475Y-70477200D01*
X58935475Y-70477200D02*
X58840237Y-70524819D01*
X58840237Y-70524819D02*
X58649761Y-70524819D01*
X58649761Y-70524819D02*
X58554523Y-70477200D01*
X58554523Y-70477200D02*
X58506904Y-70429580D01*
X58506904Y-70429580D02*
X58459285Y-70334342D01*
X58459285Y-70334342D02*
X58459285Y-70096247D01*
X58459285Y-70096247D02*
X58506904Y-70001009D01*
X58506904Y-70001009D02*
X58554523Y-69953390D01*
X58554523Y-69953390D02*
X58649761Y-69905771D01*
X58649761Y-69905771D02*
X58840237Y-69905771D01*
X58840237Y-69905771D02*
X58935475Y-69953390D01*
X58935475Y-69953390D02*
X58983094Y-70001009D01*
X58983094Y-70001009D02*
X59030713Y-70096247D01*
X52775857Y-60558819D02*
X53109190Y-60082628D01*
X53347285Y-60558819D02*
X53347285Y-59558819D01*
X53347285Y-59558819D02*
X52966333Y-59558819D01*
X52966333Y-59558819D02*
X52871095Y-59606438D01*
X52871095Y-59606438D02*
X52823476Y-59654057D01*
X52823476Y-59654057D02*
X52775857Y-59749295D01*
X52775857Y-59749295D02*
X52775857Y-59892152D01*
X52775857Y-59892152D02*
X52823476Y-59987390D01*
X52823476Y-59987390D02*
X52871095Y-60035009D01*
X52871095Y-60035009D02*
X52966333Y-60082628D01*
X52966333Y-60082628D02*
X53347285Y-60082628D01*
X51918714Y-59558819D02*
X52109190Y-59558819D01*
X52109190Y-59558819D02*
X52204428Y-59606438D01*
X52204428Y-59606438D02*
X52252047Y-59654057D01*
X52252047Y-59654057D02*
X52347285Y-59796914D01*
X52347285Y-59796914D02*
X52394904Y-59987390D01*
X52394904Y-59987390D02*
X52394904Y-60368342D01*
X52394904Y-60368342D02*
X52347285Y-60463580D01*
X52347285Y-60463580D02*
X52299666Y-60511200D01*
X52299666Y-60511200D02*
X52204428Y-60558819D01*
X52204428Y-60558819D02*
X52013952Y-60558819D01*
X52013952Y-60558819D02*
X51918714Y-60511200D01*
X51918714Y-60511200D02*
X51871095Y-60463580D01*
X51871095Y-60463580D02*
X51823476Y-60368342D01*
X51823476Y-60368342D02*
X51823476Y-60130247D01*
X51823476Y-60130247D02*
X51871095Y-60035009D01*
X51871095Y-60035009D02*
X51918714Y-59987390D01*
X51918714Y-59987390D02*
X52013952Y-59939771D01*
X52013952Y-59939771D02*
X52204428Y-59939771D01*
X52204428Y-59939771D02*
X52299666Y-59987390D01*
X52299666Y-59987390D02*
X52347285Y-60035009D01*
X52347285Y-60035009D02*
X52394904Y-60130247D01*
X51347285Y-60558819D02*
X51156809Y-60558819D01*
X51156809Y-60558819D02*
X51061571Y-60511200D01*
X51061571Y-60511200D02*
X51013952Y-60463580D01*
X51013952Y-60463580D02*
X50918714Y-60320723D01*
X50918714Y-60320723D02*
X50871095Y-60130247D01*
X50871095Y-60130247D02*
X50871095Y-59749295D01*
X50871095Y-59749295D02*
X50918714Y-59654057D01*
X50918714Y-59654057D02*
X50966333Y-59606438D01*
X50966333Y-59606438D02*
X51061571Y-59558819D01*
X51061571Y-59558819D02*
X51252047Y-59558819D01*
X51252047Y-59558819D02*
X51347285Y-59606438D01*
X51347285Y-59606438D02*
X51394904Y-59654057D01*
X51394904Y-59654057D02*
X51442523Y-59749295D01*
X51442523Y-59749295D02*
X51442523Y-59987390D01*
X51442523Y-59987390D02*
X51394904Y-60082628D01*
X51394904Y-60082628D02*
X51347285Y-60130247D01*
X51347285Y-60130247D02*
X51252047Y-60177866D01*
X51252047Y-60177866D02*
X51061571Y-60177866D01*
X51061571Y-60177866D02*
X50966333Y-60130247D01*
X50966333Y-60130247D02*
X50918714Y-60082628D01*
X50918714Y-60082628D02*
X50871095Y-59987390D01*
X59887857Y-100944819D02*
X60221190Y-100468628D01*
X60459285Y-100944819D02*
X60459285Y-99944819D01*
X60459285Y-99944819D02*
X60078333Y-99944819D01*
X60078333Y-99944819D02*
X59983095Y-99992438D01*
X59983095Y-99992438D02*
X59935476Y-100040057D01*
X59935476Y-100040057D02*
X59887857Y-100135295D01*
X59887857Y-100135295D02*
X59887857Y-100278152D01*
X59887857Y-100278152D02*
X59935476Y-100373390D01*
X59935476Y-100373390D02*
X59983095Y-100421009D01*
X59983095Y-100421009D02*
X60078333Y-100468628D01*
X60078333Y-100468628D02*
X60459285Y-100468628D01*
X58935476Y-100944819D02*
X59506904Y-100944819D01*
X59221190Y-100944819D02*
X59221190Y-99944819D01*
X59221190Y-99944819D02*
X59316428Y-100087676D01*
X59316428Y-100087676D02*
X59411666Y-100182914D01*
X59411666Y-100182914D02*
X59506904Y-100230533D01*
X58364047Y-100373390D02*
X58459285Y-100325771D01*
X58459285Y-100325771D02*
X58506904Y-100278152D01*
X58506904Y-100278152D02*
X58554523Y-100182914D01*
X58554523Y-100182914D02*
X58554523Y-100135295D01*
X58554523Y-100135295D02*
X58506904Y-100040057D01*
X58506904Y-100040057D02*
X58459285Y-99992438D01*
X58459285Y-99992438D02*
X58364047Y-99944819D01*
X58364047Y-99944819D02*
X58173571Y-99944819D01*
X58173571Y-99944819D02*
X58078333Y-99992438D01*
X58078333Y-99992438D02*
X58030714Y-100040057D01*
X58030714Y-100040057D02*
X57983095Y-100135295D01*
X57983095Y-100135295D02*
X57983095Y-100182914D01*
X57983095Y-100182914D02*
X58030714Y-100278152D01*
X58030714Y-100278152D02*
X58078333Y-100325771D01*
X58078333Y-100325771D02*
X58173571Y-100373390D01*
X58173571Y-100373390D02*
X58364047Y-100373390D01*
X58364047Y-100373390D02*
X58459285Y-100421009D01*
X58459285Y-100421009D02*
X58506904Y-100468628D01*
X58506904Y-100468628D02*
X58554523Y-100563866D01*
X58554523Y-100563866D02*
X58554523Y-100754342D01*
X58554523Y-100754342D02*
X58506904Y-100849580D01*
X58506904Y-100849580D02*
X58459285Y-100897200D01*
X58459285Y-100897200D02*
X58364047Y-100944819D01*
X58364047Y-100944819D02*
X58173571Y-100944819D01*
X58173571Y-100944819D02*
X58078333Y-100897200D01*
X58078333Y-100897200D02*
X58030714Y-100849580D01*
X58030714Y-100849580D02*
X57983095Y-100754342D01*
X57983095Y-100754342D02*
X57983095Y-100563866D01*
X57983095Y-100563866D02*
X58030714Y-100468628D01*
X58030714Y-100468628D02*
X58078333Y-100421009D01*
X58078333Y-100421009D02*
X58173571Y-100373390D01*
X52903857Y-98658819D02*
X53237190Y-98182628D01*
X53475285Y-98658819D02*
X53475285Y-97658819D01*
X53475285Y-97658819D02*
X53094333Y-97658819D01*
X53094333Y-97658819D02*
X52999095Y-97706438D01*
X52999095Y-97706438D02*
X52951476Y-97754057D01*
X52951476Y-97754057D02*
X52903857Y-97849295D01*
X52903857Y-97849295D02*
X52903857Y-97992152D01*
X52903857Y-97992152D02*
X52951476Y-98087390D01*
X52951476Y-98087390D02*
X52999095Y-98135009D01*
X52999095Y-98135009D02*
X53094333Y-98182628D01*
X53094333Y-98182628D02*
X53475285Y-98182628D01*
X51999095Y-97658819D02*
X52475285Y-97658819D01*
X52475285Y-97658819D02*
X52522904Y-98135009D01*
X52522904Y-98135009D02*
X52475285Y-98087390D01*
X52475285Y-98087390D02*
X52380047Y-98039771D01*
X52380047Y-98039771D02*
X52141952Y-98039771D01*
X52141952Y-98039771D02*
X52046714Y-98087390D01*
X52046714Y-98087390D02*
X51999095Y-98135009D01*
X51999095Y-98135009D02*
X51951476Y-98230247D01*
X51951476Y-98230247D02*
X51951476Y-98468342D01*
X51951476Y-98468342D02*
X51999095Y-98563580D01*
X51999095Y-98563580D02*
X52046714Y-98611200D01*
X52046714Y-98611200D02*
X52141952Y-98658819D01*
X52141952Y-98658819D02*
X52380047Y-98658819D01*
X52380047Y-98658819D02*
X52475285Y-98611200D01*
X52475285Y-98611200D02*
X52522904Y-98563580D01*
X51094333Y-97992152D02*
X51094333Y-98658819D01*
X51332428Y-97611200D02*
X51570523Y-98325485D01*
X51570523Y-98325485D02*
X50951476Y-98325485D01*
X59887857Y-98404819D02*
X60221190Y-97928628D01*
X60459285Y-98404819D02*
X60459285Y-97404819D01*
X60459285Y-97404819D02*
X60078333Y-97404819D01*
X60078333Y-97404819D02*
X59983095Y-97452438D01*
X59983095Y-97452438D02*
X59935476Y-97500057D01*
X59935476Y-97500057D02*
X59887857Y-97595295D01*
X59887857Y-97595295D02*
X59887857Y-97738152D01*
X59887857Y-97738152D02*
X59935476Y-97833390D01*
X59935476Y-97833390D02*
X59983095Y-97881009D01*
X59983095Y-97881009D02*
X60078333Y-97928628D01*
X60078333Y-97928628D02*
X60459285Y-97928628D01*
X58935476Y-98404819D02*
X59506904Y-98404819D01*
X59221190Y-98404819D02*
X59221190Y-97404819D01*
X59221190Y-97404819D02*
X59316428Y-97547676D01*
X59316428Y-97547676D02*
X59411666Y-97642914D01*
X59411666Y-97642914D02*
X59506904Y-97690533D01*
X58602142Y-97404819D02*
X57935476Y-97404819D01*
X57935476Y-97404819D02*
X58364047Y-98404819D01*
X59887857Y-93324819D02*
X60221190Y-92848628D01*
X60459285Y-93324819D02*
X60459285Y-92324819D01*
X60459285Y-92324819D02*
X60078333Y-92324819D01*
X60078333Y-92324819D02*
X59983095Y-92372438D01*
X59983095Y-92372438D02*
X59935476Y-92420057D01*
X59935476Y-92420057D02*
X59887857Y-92515295D01*
X59887857Y-92515295D02*
X59887857Y-92658152D01*
X59887857Y-92658152D02*
X59935476Y-92753390D01*
X59935476Y-92753390D02*
X59983095Y-92801009D01*
X59983095Y-92801009D02*
X60078333Y-92848628D01*
X60078333Y-92848628D02*
X60459285Y-92848628D01*
X58935476Y-93324819D02*
X59506904Y-93324819D01*
X59221190Y-93324819D02*
X59221190Y-92324819D01*
X59221190Y-92324819D02*
X59316428Y-92467676D01*
X59316428Y-92467676D02*
X59411666Y-92562914D01*
X59411666Y-92562914D02*
X59506904Y-92610533D01*
X58030714Y-92324819D02*
X58506904Y-92324819D01*
X58506904Y-92324819D02*
X58554523Y-92801009D01*
X58554523Y-92801009D02*
X58506904Y-92753390D01*
X58506904Y-92753390D02*
X58411666Y-92705771D01*
X58411666Y-92705771D02*
X58173571Y-92705771D01*
X58173571Y-92705771D02*
X58078333Y-92753390D01*
X58078333Y-92753390D02*
X58030714Y-92801009D01*
X58030714Y-92801009D02*
X57983095Y-92896247D01*
X57983095Y-92896247D02*
X57983095Y-93134342D01*
X57983095Y-93134342D02*
X58030714Y-93229580D01*
X58030714Y-93229580D02*
X58078333Y-93277200D01*
X58078333Y-93277200D02*
X58173571Y-93324819D01*
X58173571Y-93324819D02*
X58411666Y-93324819D01*
X58411666Y-93324819D02*
X58506904Y-93277200D01*
X58506904Y-93277200D02*
X58554523Y-93229580D01*
X59887857Y-111104819D02*
X60221190Y-110628628D01*
X60459285Y-111104819D02*
X60459285Y-110104819D01*
X60459285Y-110104819D02*
X60078333Y-110104819D01*
X60078333Y-110104819D02*
X59983095Y-110152438D01*
X59983095Y-110152438D02*
X59935476Y-110200057D01*
X59935476Y-110200057D02*
X59887857Y-110295295D01*
X59887857Y-110295295D02*
X59887857Y-110438152D01*
X59887857Y-110438152D02*
X59935476Y-110533390D01*
X59935476Y-110533390D02*
X59983095Y-110581009D01*
X59983095Y-110581009D02*
X60078333Y-110628628D01*
X60078333Y-110628628D02*
X60459285Y-110628628D01*
X59506904Y-110200057D02*
X59459285Y-110152438D01*
X59459285Y-110152438D02*
X59364047Y-110104819D01*
X59364047Y-110104819D02*
X59125952Y-110104819D01*
X59125952Y-110104819D02*
X59030714Y-110152438D01*
X59030714Y-110152438D02*
X58983095Y-110200057D01*
X58983095Y-110200057D02*
X58935476Y-110295295D01*
X58935476Y-110295295D02*
X58935476Y-110390533D01*
X58935476Y-110390533D02*
X58983095Y-110533390D01*
X58983095Y-110533390D02*
X59554523Y-111104819D01*
X59554523Y-111104819D02*
X58935476Y-111104819D01*
X58554523Y-110200057D02*
X58506904Y-110152438D01*
X58506904Y-110152438D02*
X58411666Y-110104819D01*
X58411666Y-110104819D02*
X58173571Y-110104819D01*
X58173571Y-110104819D02*
X58078333Y-110152438D01*
X58078333Y-110152438D02*
X58030714Y-110200057D01*
X58030714Y-110200057D02*
X57983095Y-110295295D01*
X57983095Y-110295295D02*
X57983095Y-110390533D01*
X57983095Y-110390533D02*
X58030714Y-110533390D01*
X58030714Y-110533390D02*
X58602142Y-111104819D01*
X58602142Y-111104819D02*
X57983095Y-111104819D01*
X52903857Y-103738819D02*
X53237190Y-103262628D01*
X53475285Y-103738819D02*
X53475285Y-102738819D01*
X53475285Y-102738819D02*
X53094333Y-102738819D01*
X53094333Y-102738819D02*
X52999095Y-102786438D01*
X52999095Y-102786438D02*
X52951476Y-102834057D01*
X52951476Y-102834057D02*
X52903857Y-102929295D01*
X52903857Y-102929295D02*
X52903857Y-103072152D01*
X52903857Y-103072152D02*
X52951476Y-103167390D01*
X52951476Y-103167390D02*
X52999095Y-103215009D01*
X52999095Y-103215009D02*
X53094333Y-103262628D01*
X53094333Y-103262628D02*
X53475285Y-103262628D01*
X51999095Y-102738819D02*
X52475285Y-102738819D01*
X52475285Y-102738819D02*
X52522904Y-103215009D01*
X52522904Y-103215009D02*
X52475285Y-103167390D01*
X52475285Y-103167390D02*
X52380047Y-103119771D01*
X52380047Y-103119771D02*
X52141952Y-103119771D01*
X52141952Y-103119771D02*
X52046714Y-103167390D01*
X52046714Y-103167390D02*
X51999095Y-103215009D01*
X51999095Y-103215009D02*
X51951476Y-103310247D01*
X51951476Y-103310247D02*
X51951476Y-103548342D01*
X51951476Y-103548342D02*
X51999095Y-103643580D01*
X51999095Y-103643580D02*
X52046714Y-103691200D01*
X52046714Y-103691200D02*
X52141952Y-103738819D01*
X52141952Y-103738819D02*
X52380047Y-103738819D01*
X52380047Y-103738819D02*
X52475285Y-103691200D01*
X52475285Y-103691200D02*
X52522904Y-103643580D01*
X51570523Y-102834057D02*
X51522904Y-102786438D01*
X51522904Y-102786438D02*
X51427666Y-102738819D01*
X51427666Y-102738819D02*
X51189571Y-102738819D01*
X51189571Y-102738819D02*
X51094333Y-102786438D01*
X51094333Y-102786438D02*
X51046714Y-102834057D01*
X51046714Y-102834057D02*
X50999095Y-102929295D01*
X50999095Y-102929295D02*
X50999095Y-103024533D01*
X50999095Y-103024533D02*
X51046714Y-103167390D01*
X51046714Y-103167390D02*
X51618142Y-103738819D01*
X51618142Y-103738819D02*
X50999095Y-103738819D01*
X53157857Y-111358819D02*
X53491190Y-110882628D01*
X53729285Y-111358819D02*
X53729285Y-110358819D01*
X53729285Y-110358819D02*
X53348333Y-110358819D01*
X53348333Y-110358819D02*
X53253095Y-110406438D01*
X53253095Y-110406438D02*
X53205476Y-110454057D01*
X53205476Y-110454057D02*
X53157857Y-110549295D01*
X53157857Y-110549295D02*
X53157857Y-110692152D01*
X53157857Y-110692152D02*
X53205476Y-110787390D01*
X53205476Y-110787390D02*
X53253095Y-110835009D01*
X53253095Y-110835009D02*
X53348333Y-110882628D01*
X53348333Y-110882628D02*
X53729285Y-110882628D01*
X52300714Y-110692152D02*
X52300714Y-111358819D01*
X52538809Y-110311200D02*
X52776904Y-111025485D01*
X52776904Y-111025485D02*
X52157857Y-111025485D01*
X51729285Y-111358819D02*
X51538809Y-111358819D01*
X51538809Y-111358819D02*
X51443571Y-111311200D01*
X51443571Y-111311200D02*
X51395952Y-111263580D01*
X51395952Y-111263580D02*
X51300714Y-111120723D01*
X51300714Y-111120723D02*
X51253095Y-110930247D01*
X51253095Y-110930247D02*
X51253095Y-110549295D01*
X51253095Y-110549295D02*
X51300714Y-110454057D01*
X51300714Y-110454057D02*
X51348333Y-110406438D01*
X51348333Y-110406438D02*
X51443571Y-110358819D01*
X51443571Y-110358819D02*
X51634047Y-110358819D01*
X51634047Y-110358819D02*
X51729285Y-110406438D01*
X51729285Y-110406438D02*
X51776904Y-110454057D01*
X51776904Y-110454057D02*
X51824523Y-110549295D01*
X51824523Y-110549295D02*
X51824523Y-110787390D01*
X51824523Y-110787390D02*
X51776904Y-110882628D01*
X51776904Y-110882628D02*
X51729285Y-110930247D01*
X51729285Y-110930247D02*
X51634047Y-110977866D01*
X51634047Y-110977866D02*
X51443571Y-110977866D01*
X51443571Y-110977866D02*
X51348333Y-110930247D01*
X51348333Y-110930247D02*
X51300714Y-110882628D01*
X51300714Y-110882628D02*
X51253095Y-110787390D01*
X59411666Y-62844819D02*
X59744999Y-62368628D01*
X59983094Y-62844819D02*
X59983094Y-61844819D01*
X59983094Y-61844819D02*
X59602142Y-61844819D01*
X59602142Y-61844819D02*
X59506904Y-61892438D01*
X59506904Y-61892438D02*
X59459285Y-61940057D01*
X59459285Y-61940057D02*
X59411666Y-62035295D01*
X59411666Y-62035295D02*
X59411666Y-62178152D01*
X59411666Y-62178152D02*
X59459285Y-62273390D01*
X59459285Y-62273390D02*
X59506904Y-62321009D01*
X59506904Y-62321009D02*
X59602142Y-62368628D01*
X59602142Y-62368628D02*
X59983094Y-62368628D01*
X59078332Y-61844819D02*
X58459285Y-61844819D01*
X58459285Y-61844819D02*
X58792618Y-62225771D01*
X58792618Y-62225771D02*
X58649761Y-62225771D01*
X58649761Y-62225771D02*
X58554523Y-62273390D01*
X58554523Y-62273390D02*
X58506904Y-62321009D01*
X58506904Y-62321009D02*
X58459285Y-62416247D01*
X58459285Y-62416247D02*
X58459285Y-62654342D01*
X58459285Y-62654342D02*
X58506904Y-62749580D01*
X58506904Y-62749580D02*
X58554523Y-62797200D01*
X58554523Y-62797200D02*
X58649761Y-62844819D01*
X58649761Y-62844819D02*
X58935475Y-62844819D01*
X58935475Y-62844819D02*
X59030713Y-62797200D01*
X59030713Y-62797200D02*
X59078332Y-62749580D01*
X59887857Y-126344819D02*
X60221190Y-125868628D01*
X60459285Y-126344819D02*
X60459285Y-125344819D01*
X60459285Y-125344819D02*
X60078333Y-125344819D01*
X60078333Y-125344819D02*
X59983095Y-125392438D01*
X59983095Y-125392438D02*
X59935476Y-125440057D01*
X59935476Y-125440057D02*
X59887857Y-125535295D01*
X59887857Y-125535295D02*
X59887857Y-125678152D01*
X59887857Y-125678152D02*
X59935476Y-125773390D01*
X59935476Y-125773390D02*
X59983095Y-125821009D01*
X59983095Y-125821009D02*
X60078333Y-125868628D01*
X60078333Y-125868628D02*
X60459285Y-125868628D01*
X59506904Y-125440057D02*
X59459285Y-125392438D01*
X59459285Y-125392438D02*
X59364047Y-125344819D01*
X59364047Y-125344819D02*
X59125952Y-125344819D01*
X59125952Y-125344819D02*
X59030714Y-125392438D01*
X59030714Y-125392438D02*
X58983095Y-125440057D01*
X58983095Y-125440057D02*
X58935476Y-125535295D01*
X58935476Y-125535295D02*
X58935476Y-125630533D01*
X58935476Y-125630533D02*
X58983095Y-125773390D01*
X58983095Y-125773390D02*
X59554523Y-126344819D01*
X59554523Y-126344819D02*
X58935476Y-126344819D01*
X58364047Y-125773390D02*
X58459285Y-125725771D01*
X58459285Y-125725771D02*
X58506904Y-125678152D01*
X58506904Y-125678152D02*
X58554523Y-125582914D01*
X58554523Y-125582914D02*
X58554523Y-125535295D01*
X58554523Y-125535295D02*
X58506904Y-125440057D01*
X58506904Y-125440057D02*
X58459285Y-125392438D01*
X58459285Y-125392438D02*
X58364047Y-125344819D01*
X58364047Y-125344819D02*
X58173571Y-125344819D01*
X58173571Y-125344819D02*
X58078333Y-125392438D01*
X58078333Y-125392438D02*
X58030714Y-125440057D01*
X58030714Y-125440057D02*
X57983095Y-125535295D01*
X57983095Y-125535295D02*
X57983095Y-125582914D01*
X57983095Y-125582914D02*
X58030714Y-125678152D01*
X58030714Y-125678152D02*
X58078333Y-125725771D01*
X58078333Y-125725771D02*
X58173571Y-125773390D01*
X58173571Y-125773390D02*
X58364047Y-125773390D01*
X58364047Y-125773390D02*
X58459285Y-125821009D01*
X58459285Y-125821009D02*
X58506904Y-125868628D01*
X58506904Y-125868628D02*
X58554523Y-125963866D01*
X58554523Y-125963866D02*
X58554523Y-126154342D01*
X58554523Y-126154342D02*
X58506904Y-126249580D01*
X58506904Y-126249580D02*
X58459285Y-126297200D01*
X58459285Y-126297200D02*
X58364047Y-126344819D01*
X58364047Y-126344819D02*
X58173571Y-126344819D01*
X58173571Y-126344819D02*
X58078333Y-126297200D01*
X58078333Y-126297200D02*
X58030714Y-126249580D01*
X58030714Y-126249580D02*
X57983095Y-126154342D01*
X57983095Y-126154342D02*
X57983095Y-125963866D01*
X57983095Y-125963866D02*
X58030714Y-125868628D01*
X58030714Y-125868628D02*
X58078333Y-125821009D01*
X58078333Y-125821009D02*
X58173571Y-125773390D01*
X59411666Y-60484819D02*
X59744999Y-60008628D01*
X59983094Y-60484819D02*
X59983094Y-59484819D01*
X59983094Y-59484819D02*
X59602142Y-59484819D01*
X59602142Y-59484819D02*
X59506904Y-59532438D01*
X59506904Y-59532438D02*
X59459285Y-59580057D01*
X59459285Y-59580057D02*
X59411666Y-59675295D01*
X59411666Y-59675295D02*
X59411666Y-59818152D01*
X59411666Y-59818152D02*
X59459285Y-59913390D01*
X59459285Y-59913390D02*
X59506904Y-59961009D01*
X59506904Y-59961009D02*
X59602142Y-60008628D01*
X59602142Y-60008628D02*
X59983094Y-60008628D01*
X59030713Y-59580057D02*
X58983094Y-59532438D01*
X58983094Y-59532438D02*
X58887856Y-59484819D01*
X58887856Y-59484819D02*
X58649761Y-59484819D01*
X58649761Y-59484819D02*
X58554523Y-59532438D01*
X58554523Y-59532438D02*
X58506904Y-59580057D01*
X58506904Y-59580057D02*
X58459285Y-59675295D01*
X58459285Y-59675295D02*
X58459285Y-59770533D01*
X58459285Y-59770533D02*
X58506904Y-59913390D01*
X58506904Y-59913390D02*
X59078332Y-60484819D01*
X59078332Y-60484819D02*
X58459285Y-60484819D01*
X59411666Y-59984819D02*
X59744999Y-59508628D01*
X59983094Y-59984819D02*
X59983094Y-58984819D01*
X59983094Y-58984819D02*
X59602142Y-58984819D01*
X59602142Y-58984819D02*
X59506904Y-59032438D01*
X59506904Y-59032438D02*
X59459285Y-59080057D01*
X59459285Y-59080057D02*
X59411666Y-59175295D01*
X59411666Y-59175295D02*
X59411666Y-59318152D01*
X59411666Y-59318152D02*
X59459285Y-59413390D01*
X59459285Y-59413390D02*
X59506904Y-59461009D01*
X59506904Y-59461009D02*
X59602142Y-59508628D01*
X59602142Y-59508628D02*
X59983094Y-59508628D01*
X58459285Y-59984819D02*
X59030713Y-59984819D01*
X58744999Y-59984819D02*
X58744999Y-58984819D01*
X58744999Y-58984819D02*
X58840237Y-59127676D01*
X58840237Y-59127676D02*
X58935475Y-59222914D01*
X58935475Y-59222914D02*
X59030713Y-59270533D01*
X59411666Y-65504819D02*
X59744999Y-65028628D01*
X59983094Y-65504819D02*
X59983094Y-64504819D01*
X59983094Y-64504819D02*
X59602142Y-64504819D01*
X59602142Y-64504819D02*
X59506904Y-64552438D01*
X59506904Y-64552438D02*
X59459285Y-64600057D01*
X59459285Y-64600057D02*
X59411666Y-64695295D01*
X59411666Y-64695295D02*
X59411666Y-64838152D01*
X59411666Y-64838152D02*
X59459285Y-64933390D01*
X59459285Y-64933390D02*
X59506904Y-64981009D01*
X59506904Y-64981009D02*
X59602142Y-65028628D01*
X59602142Y-65028628D02*
X59983094Y-65028628D01*
X58554523Y-64838152D02*
X58554523Y-65504819D01*
X58792618Y-64457200D02*
X59030713Y-65171485D01*
X59030713Y-65171485D02*
X58411666Y-65171485D01*
X52903857Y-91038819D02*
X53237190Y-90562628D01*
X53475285Y-91038819D02*
X53475285Y-90038819D01*
X53475285Y-90038819D02*
X53094333Y-90038819D01*
X53094333Y-90038819D02*
X52999095Y-90086438D01*
X52999095Y-90086438D02*
X52951476Y-90134057D01*
X52951476Y-90134057D02*
X52903857Y-90229295D01*
X52903857Y-90229295D02*
X52903857Y-90372152D01*
X52903857Y-90372152D02*
X52951476Y-90467390D01*
X52951476Y-90467390D02*
X52999095Y-90515009D01*
X52999095Y-90515009D02*
X53094333Y-90562628D01*
X53094333Y-90562628D02*
X53475285Y-90562628D01*
X51999095Y-90038819D02*
X52475285Y-90038819D01*
X52475285Y-90038819D02*
X52522904Y-90515009D01*
X52522904Y-90515009D02*
X52475285Y-90467390D01*
X52475285Y-90467390D02*
X52380047Y-90419771D01*
X52380047Y-90419771D02*
X52141952Y-90419771D01*
X52141952Y-90419771D02*
X52046714Y-90467390D01*
X52046714Y-90467390D02*
X51999095Y-90515009D01*
X51999095Y-90515009D02*
X51951476Y-90610247D01*
X51951476Y-90610247D02*
X51951476Y-90848342D01*
X51951476Y-90848342D02*
X51999095Y-90943580D01*
X51999095Y-90943580D02*
X52046714Y-90991200D01*
X52046714Y-90991200D02*
X52141952Y-91038819D01*
X52141952Y-91038819D02*
X52380047Y-91038819D01*
X52380047Y-91038819D02*
X52475285Y-90991200D01*
X52475285Y-90991200D02*
X52522904Y-90943580D01*
X51618142Y-90038819D02*
X50951476Y-90038819D01*
X50951476Y-90038819D02*
X51380047Y-91038819D01*
X52903857Y-83418819D02*
X53237190Y-82942628D01*
X53475285Y-83418819D02*
X53475285Y-82418819D01*
X53475285Y-82418819D02*
X53094333Y-82418819D01*
X53094333Y-82418819D02*
X52999095Y-82466438D01*
X52999095Y-82466438D02*
X52951476Y-82514057D01*
X52951476Y-82514057D02*
X52903857Y-82609295D01*
X52903857Y-82609295D02*
X52903857Y-82752152D01*
X52903857Y-82752152D02*
X52951476Y-82847390D01*
X52951476Y-82847390D02*
X52999095Y-82895009D01*
X52999095Y-82895009D02*
X53094333Y-82942628D01*
X53094333Y-82942628D02*
X53475285Y-82942628D01*
X52046714Y-82418819D02*
X52237190Y-82418819D01*
X52237190Y-82418819D02*
X52332428Y-82466438D01*
X52332428Y-82466438D02*
X52380047Y-82514057D01*
X52380047Y-82514057D02*
X52475285Y-82656914D01*
X52475285Y-82656914D02*
X52522904Y-82847390D01*
X52522904Y-82847390D02*
X52522904Y-83228342D01*
X52522904Y-83228342D02*
X52475285Y-83323580D01*
X52475285Y-83323580D02*
X52427666Y-83371200D01*
X52427666Y-83371200D02*
X52332428Y-83418819D01*
X52332428Y-83418819D02*
X52141952Y-83418819D01*
X52141952Y-83418819D02*
X52046714Y-83371200D01*
X52046714Y-83371200D02*
X51999095Y-83323580D01*
X51999095Y-83323580D02*
X51951476Y-83228342D01*
X51951476Y-83228342D02*
X51951476Y-82990247D01*
X51951476Y-82990247D02*
X51999095Y-82895009D01*
X51999095Y-82895009D02*
X52046714Y-82847390D01*
X52046714Y-82847390D02*
X52141952Y-82799771D01*
X52141952Y-82799771D02*
X52332428Y-82799771D01*
X52332428Y-82799771D02*
X52427666Y-82847390D01*
X52427666Y-82847390D02*
X52475285Y-82895009D01*
X52475285Y-82895009D02*
X52522904Y-82990247D01*
X51332428Y-82418819D02*
X51237190Y-82418819D01*
X51237190Y-82418819D02*
X51141952Y-82466438D01*
X51141952Y-82466438D02*
X51094333Y-82514057D01*
X51094333Y-82514057D02*
X51046714Y-82609295D01*
X51046714Y-82609295D02*
X50999095Y-82799771D01*
X50999095Y-82799771D02*
X50999095Y-83037866D01*
X50999095Y-83037866D02*
X51046714Y-83228342D01*
X51046714Y-83228342D02*
X51094333Y-83323580D01*
X51094333Y-83323580D02*
X51141952Y-83371200D01*
X51141952Y-83371200D02*
X51237190Y-83418819D01*
X51237190Y-83418819D02*
X51332428Y-83418819D01*
X51332428Y-83418819D02*
X51427666Y-83371200D01*
X51427666Y-83371200D02*
X51475285Y-83323580D01*
X51475285Y-83323580D02*
X51522904Y-83228342D01*
X51522904Y-83228342D02*
X51570523Y-83037866D01*
X51570523Y-83037866D02*
X51570523Y-82799771D01*
X51570523Y-82799771D02*
X51522904Y-82609295D01*
X51522904Y-82609295D02*
X51475285Y-82514057D01*
X51475285Y-82514057D02*
X51427666Y-82466438D01*
X51427666Y-82466438D02*
X51332428Y-82418819D01*
X52903857Y-88468819D02*
X53237190Y-87992628D01*
X53475285Y-88468819D02*
X53475285Y-87468819D01*
X53475285Y-87468819D02*
X53094333Y-87468819D01*
X53094333Y-87468819D02*
X52999095Y-87516438D01*
X52999095Y-87516438D02*
X52951476Y-87564057D01*
X52951476Y-87564057D02*
X52903857Y-87659295D01*
X52903857Y-87659295D02*
X52903857Y-87802152D01*
X52903857Y-87802152D02*
X52951476Y-87897390D01*
X52951476Y-87897390D02*
X52999095Y-87945009D01*
X52999095Y-87945009D02*
X53094333Y-87992628D01*
X53094333Y-87992628D02*
X53475285Y-87992628D01*
X51999095Y-87468819D02*
X52475285Y-87468819D01*
X52475285Y-87468819D02*
X52522904Y-87945009D01*
X52522904Y-87945009D02*
X52475285Y-87897390D01*
X52475285Y-87897390D02*
X52380047Y-87849771D01*
X52380047Y-87849771D02*
X52141952Y-87849771D01*
X52141952Y-87849771D02*
X52046714Y-87897390D01*
X52046714Y-87897390D02*
X51999095Y-87945009D01*
X51999095Y-87945009D02*
X51951476Y-88040247D01*
X51951476Y-88040247D02*
X51951476Y-88278342D01*
X51951476Y-88278342D02*
X51999095Y-88373580D01*
X51999095Y-88373580D02*
X52046714Y-88421200D01*
X52046714Y-88421200D02*
X52141952Y-88468819D01*
X52141952Y-88468819D02*
X52380047Y-88468819D01*
X52380047Y-88468819D02*
X52475285Y-88421200D01*
X52475285Y-88421200D02*
X52522904Y-88373580D01*
X51380047Y-87897390D02*
X51475285Y-87849771D01*
X51475285Y-87849771D02*
X51522904Y-87802152D01*
X51522904Y-87802152D02*
X51570523Y-87706914D01*
X51570523Y-87706914D02*
X51570523Y-87659295D01*
X51570523Y-87659295D02*
X51522904Y-87564057D01*
X51522904Y-87564057D02*
X51475285Y-87516438D01*
X51475285Y-87516438D02*
X51380047Y-87468819D01*
X51380047Y-87468819D02*
X51189571Y-87468819D01*
X51189571Y-87468819D02*
X51094333Y-87516438D01*
X51094333Y-87516438D02*
X51046714Y-87564057D01*
X51046714Y-87564057D02*
X50999095Y-87659295D01*
X50999095Y-87659295D02*
X50999095Y-87706914D01*
X50999095Y-87706914D02*
X51046714Y-87802152D01*
X51046714Y-87802152D02*
X51094333Y-87849771D01*
X51094333Y-87849771D02*
X51189571Y-87897390D01*
X51189571Y-87897390D02*
X51380047Y-87897390D01*
X51380047Y-87897390D02*
X51475285Y-87945009D01*
X51475285Y-87945009D02*
X51522904Y-87992628D01*
X51522904Y-87992628D02*
X51570523Y-88087866D01*
X51570523Y-88087866D02*
X51570523Y-88278342D01*
X51570523Y-88278342D02*
X51522904Y-88373580D01*
X51522904Y-88373580D02*
X51475285Y-88421200D01*
X51475285Y-88421200D02*
X51380047Y-88468819D01*
X51380047Y-88468819D02*
X51189571Y-88468819D01*
X51189571Y-88468819D02*
X51094333Y-88421200D01*
X51094333Y-88421200D02*
X51046714Y-88373580D01*
X51046714Y-88373580D02*
X50999095Y-88278342D01*
X50999095Y-88278342D02*
X50999095Y-88087866D01*
X50999095Y-88087866D02*
X51046714Y-87992628D01*
X51046714Y-87992628D02*
X51094333Y-87945009D01*
X51094333Y-87945009D02*
X51189571Y-87897390D01*
X53157857Y-118978819D02*
X53491190Y-118502628D01*
X53729285Y-118978819D02*
X53729285Y-117978819D01*
X53729285Y-117978819D02*
X53348333Y-117978819D01*
X53348333Y-117978819D02*
X53253095Y-118026438D01*
X53253095Y-118026438D02*
X53205476Y-118074057D01*
X53205476Y-118074057D02*
X53157857Y-118169295D01*
X53157857Y-118169295D02*
X53157857Y-118312152D01*
X53157857Y-118312152D02*
X53205476Y-118407390D01*
X53205476Y-118407390D02*
X53253095Y-118455009D01*
X53253095Y-118455009D02*
X53348333Y-118502628D01*
X53348333Y-118502628D02*
X53729285Y-118502628D01*
X52300714Y-118312152D02*
X52300714Y-118978819D01*
X52538809Y-117931200D02*
X52776904Y-118645485D01*
X52776904Y-118645485D02*
X52157857Y-118645485D01*
X51872142Y-117978819D02*
X51205476Y-117978819D01*
X51205476Y-117978819D02*
X51634047Y-118978819D01*
X52903857Y-73258819D02*
X53237190Y-72782628D01*
X53475285Y-73258819D02*
X53475285Y-72258819D01*
X53475285Y-72258819D02*
X53094333Y-72258819D01*
X53094333Y-72258819D02*
X52999095Y-72306438D01*
X52999095Y-72306438D02*
X52951476Y-72354057D01*
X52951476Y-72354057D02*
X52903857Y-72449295D01*
X52903857Y-72449295D02*
X52903857Y-72592152D01*
X52903857Y-72592152D02*
X52951476Y-72687390D01*
X52951476Y-72687390D02*
X52999095Y-72735009D01*
X52999095Y-72735009D02*
X53094333Y-72782628D01*
X53094333Y-72782628D02*
X53475285Y-72782628D01*
X52046714Y-72258819D02*
X52237190Y-72258819D01*
X52237190Y-72258819D02*
X52332428Y-72306438D01*
X52332428Y-72306438D02*
X52380047Y-72354057D01*
X52380047Y-72354057D02*
X52475285Y-72496914D01*
X52475285Y-72496914D02*
X52522904Y-72687390D01*
X52522904Y-72687390D02*
X52522904Y-73068342D01*
X52522904Y-73068342D02*
X52475285Y-73163580D01*
X52475285Y-73163580D02*
X52427666Y-73211200D01*
X52427666Y-73211200D02*
X52332428Y-73258819D01*
X52332428Y-73258819D02*
X52141952Y-73258819D01*
X52141952Y-73258819D02*
X52046714Y-73211200D01*
X52046714Y-73211200D02*
X51999095Y-73163580D01*
X51999095Y-73163580D02*
X51951476Y-73068342D01*
X51951476Y-73068342D02*
X51951476Y-72830247D01*
X51951476Y-72830247D02*
X51999095Y-72735009D01*
X51999095Y-72735009D02*
X52046714Y-72687390D01*
X52046714Y-72687390D02*
X52141952Y-72639771D01*
X52141952Y-72639771D02*
X52332428Y-72639771D01*
X52332428Y-72639771D02*
X52427666Y-72687390D01*
X52427666Y-72687390D02*
X52475285Y-72735009D01*
X52475285Y-72735009D02*
X52522904Y-72830247D01*
X51094333Y-72592152D02*
X51094333Y-73258819D01*
X51332428Y-72211200D02*
X51570523Y-72925485D01*
X51570523Y-72925485D02*
X50951476Y-72925485D01*
X52903857Y-101198819D02*
X53237190Y-100722628D01*
X53475285Y-101198819D02*
X53475285Y-100198819D01*
X53475285Y-100198819D02*
X53094333Y-100198819D01*
X53094333Y-100198819D02*
X52999095Y-100246438D01*
X52999095Y-100246438D02*
X52951476Y-100294057D01*
X52951476Y-100294057D02*
X52903857Y-100389295D01*
X52903857Y-100389295D02*
X52903857Y-100532152D01*
X52903857Y-100532152D02*
X52951476Y-100627390D01*
X52951476Y-100627390D02*
X52999095Y-100675009D01*
X52999095Y-100675009D02*
X53094333Y-100722628D01*
X53094333Y-100722628D02*
X53475285Y-100722628D01*
X51999095Y-100198819D02*
X52475285Y-100198819D01*
X52475285Y-100198819D02*
X52522904Y-100675009D01*
X52522904Y-100675009D02*
X52475285Y-100627390D01*
X52475285Y-100627390D02*
X52380047Y-100579771D01*
X52380047Y-100579771D02*
X52141952Y-100579771D01*
X52141952Y-100579771D02*
X52046714Y-100627390D01*
X52046714Y-100627390D02*
X51999095Y-100675009D01*
X51999095Y-100675009D02*
X51951476Y-100770247D01*
X51951476Y-100770247D02*
X51951476Y-101008342D01*
X51951476Y-101008342D02*
X51999095Y-101103580D01*
X51999095Y-101103580D02*
X52046714Y-101151200D01*
X52046714Y-101151200D02*
X52141952Y-101198819D01*
X52141952Y-101198819D02*
X52380047Y-101198819D01*
X52380047Y-101198819D02*
X52475285Y-101151200D01*
X52475285Y-101151200D02*
X52522904Y-101103580D01*
X51618142Y-100198819D02*
X50999095Y-100198819D01*
X50999095Y-100198819D02*
X51332428Y-100579771D01*
X51332428Y-100579771D02*
X51189571Y-100579771D01*
X51189571Y-100579771D02*
X51094333Y-100627390D01*
X51094333Y-100627390D02*
X51046714Y-100675009D01*
X51046714Y-100675009D02*
X50999095Y-100770247D01*
X50999095Y-100770247D02*
X50999095Y-101008342D01*
X50999095Y-101008342D02*
X51046714Y-101103580D01*
X51046714Y-101103580D02*
X51094333Y-101151200D01*
X51094333Y-101151200D02*
X51189571Y-101198819D01*
X51189571Y-101198819D02*
X51475285Y-101198819D01*
X51475285Y-101198819D02*
X51570523Y-101151200D01*
X51570523Y-101151200D02*
X51618142Y-101103580D01*
X52903857Y-85958819D02*
X53237190Y-85482628D01*
X53475285Y-85958819D02*
X53475285Y-84958819D01*
X53475285Y-84958819D02*
X53094333Y-84958819D01*
X53094333Y-84958819D02*
X52999095Y-85006438D01*
X52999095Y-85006438D02*
X52951476Y-85054057D01*
X52951476Y-85054057D02*
X52903857Y-85149295D01*
X52903857Y-85149295D02*
X52903857Y-85292152D01*
X52903857Y-85292152D02*
X52951476Y-85387390D01*
X52951476Y-85387390D02*
X52999095Y-85435009D01*
X52999095Y-85435009D02*
X53094333Y-85482628D01*
X53094333Y-85482628D02*
X53475285Y-85482628D01*
X51999095Y-84958819D02*
X52475285Y-84958819D01*
X52475285Y-84958819D02*
X52522904Y-85435009D01*
X52522904Y-85435009D02*
X52475285Y-85387390D01*
X52475285Y-85387390D02*
X52380047Y-85339771D01*
X52380047Y-85339771D02*
X52141952Y-85339771D01*
X52141952Y-85339771D02*
X52046714Y-85387390D01*
X52046714Y-85387390D02*
X51999095Y-85435009D01*
X51999095Y-85435009D02*
X51951476Y-85530247D01*
X51951476Y-85530247D02*
X51951476Y-85768342D01*
X51951476Y-85768342D02*
X51999095Y-85863580D01*
X51999095Y-85863580D02*
X52046714Y-85911200D01*
X52046714Y-85911200D02*
X52141952Y-85958819D01*
X52141952Y-85958819D02*
X52380047Y-85958819D01*
X52380047Y-85958819D02*
X52475285Y-85911200D01*
X52475285Y-85911200D02*
X52522904Y-85863580D01*
X51475285Y-85958819D02*
X51284809Y-85958819D01*
X51284809Y-85958819D02*
X51189571Y-85911200D01*
X51189571Y-85911200D02*
X51141952Y-85863580D01*
X51141952Y-85863580D02*
X51046714Y-85720723D01*
X51046714Y-85720723D02*
X50999095Y-85530247D01*
X50999095Y-85530247D02*
X50999095Y-85149295D01*
X50999095Y-85149295D02*
X51046714Y-85054057D01*
X51046714Y-85054057D02*
X51094333Y-85006438D01*
X51094333Y-85006438D02*
X51189571Y-84958819D01*
X51189571Y-84958819D02*
X51380047Y-84958819D01*
X51380047Y-84958819D02*
X51475285Y-85006438D01*
X51475285Y-85006438D02*
X51522904Y-85054057D01*
X51522904Y-85054057D02*
X51570523Y-85149295D01*
X51570523Y-85149295D02*
X51570523Y-85387390D01*
X51570523Y-85387390D02*
X51522904Y-85482628D01*
X51522904Y-85482628D02*
X51475285Y-85530247D01*
X51475285Y-85530247D02*
X51380047Y-85577866D01*
X51380047Y-85577866D02*
X51189571Y-85577866D01*
X51189571Y-85577866D02*
X51094333Y-85530247D01*
X51094333Y-85530247D02*
X51046714Y-85482628D01*
X51046714Y-85482628D02*
X50999095Y-85387390D01*
X59887857Y-113644819D02*
X60221190Y-113168628D01*
X60459285Y-113644819D02*
X60459285Y-112644819D01*
X60459285Y-112644819D02*
X60078333Y-112644819D01*
X60078333Y-112644819D02*
X59983095Y-112692438D01*
X59983095Y-112692438D02*
X59935476Y-112740057D01*
X59935476Y-112740057D02*
X59887857Y-112835295D01*
X59887857Y-112835295D02*
X59887857Y-112978152D01*
X59887857Y-112978152D02*
X59935476Y-113073390D01*
X59935476Y-113073390D02*
X59983095Y-113121009D01*
X59983095Y-113121009D02*
X60078333Y-113168628D01*
X60078333Y-113168628D02*
X60459285Y-113168628D01*
X59506904Y-112740057D02*
X59459285Y-112692438D01*
X59459285Y-112692438D02*
X59364047Y-112644819D01*
X59364047Y-112644819D02*
X59125952Y-112644819D01*
X59125952Y-112644819D02*
X59030714Y-112692438D01*
X59030714Y-112692438D02*
X58983095Y-112740057D01*
X58983095Y-112740057D02*
X58935476Y-112835295D01*
X58935476Y-112835295D02*
X58935476Y-112930533D01*
X58935476Y-112930533D02*
X58983095Y-113073390D01*
X58983095Y-113073390D02*
X59554523Y-113644819D01*
X59554523Y-113644819D02*
X58935476Y-113644819D01*
X58602142Y-112644819D02*
X57983095Y-112644819D01*
X57983095Y-112644819D02*
X58316428Y-113025771D01*
X58316428Y-113025771D02*
X58173571Y-113025771D01*
X58173571Y-113025771D02*
X58078333Y-113073390D01*
X58078333Y-113073390D02*
X58030714Y-113121009D01*
X58030714Y-113121009D02*
X57983095Y-113216247D01*
X57983095Y-113216247D02*
X57983095Y-113454342D01*
X57983095Y-113454342D02*
X58030714Y-113549580D01*
X58030714Y-113549580D02*
X58078333Y-113597200D01*
X58078333Y-113597200D02*
X58173571Y-113644819D01*
X58173571Y-113644819D02*
X58459285Y-113644819D01*
X58459285Y-113644819D02*
X58554523Y-113597200D01*
X58554523Y-113597200D02*
X58602142Y-113549580D01*
X59887857Y-85704819D02*
X60221190Y-85228628D01*
X60459285Y-85704819D02*
X60459285Y-84704819D01*
X60459285Y-84704819D02*
X60078333Y-84704819D01*
X60078333Y-84704819D02*
X59983095Y-84752438D01*
X59983095Y-84752438D02*
X59935476Y-84800057D01*
X59935476Y-84800057D02*
X59887857Y-84895295D01*
X59887857Y-84895295D02*
X59887857Y-85038152D01*
X59887857Y-85038152D02*
X59935476Y-85133390D01*
X59935476Y-85133390D02*
X59983095Y-85181009D01*
X59983095Y-85181009D02*
X60078333Y-85228628D01*
X60078333Y-85228628D02*
X60459285Y-85228628D01*
X58935476Y-85704819D02*
X59506904Y-85704819D01*
X59221190Y-85704819D02*
X59221190Y-84704819D01*
X59221190Y-84704819D02*
X59316428Y-84847676D01*
X59316428Y-84847676D02*
X59411666Y-84942914D01*
X59411666Y-84942914D02*
X59506904Y-84990533D01*
X58554523Y-84800057D02*
X58506904Y-84752438D01*
X58506904Y-84752438D02*
X58411666Y-84704819D01*
X58411666Y-84704819D02*
X58173571Y-84704819D01*
X58173571Y-84704819D02*
X58078333Y-84752438D01*
X58078333Y-84752438D02*
X58030714Y-84800057D01*
X58030714Y-84800057D02*
X57983095Y-84895295D01*
X57983095Y-84895295D02*
X57983095Y-84990533D01*
X57983095Y-84990533D02*
X58030714Y-85133390D01*
X58030714Y-85133390D02*
X58602142Y-85704819D01*
X58602142Y-85704819D02*
X57983095Y-85704819D01*
X59411666Y-78084819D02*
X59744999Y-77608628D01*
X59983094Y-78084819D02*
X59983094Y-77084819D01*
X59983094Y-77084819D02*
X59602142Y-77084819D01*
X59602142Y-77084819D02*
X59506904Y-77132438D01*
X59506904Y-77132438D02*
X59459285Y-77180057D01*
X59459285Y-77180057D02*
X59411666Y-77275295D01*
X59411666Y-77275295D02*
X59411666Y-77418152D01*
X59411666Y-77418152D02*
X59459285Y-77513390D01*
X59459285Y-77513390D02*
X59506904Y-77561009D01*
X59506904Y-77561009D02*
X59602142Y-77608628D01*
X59602142Y-77608628D02*
X59983094Y-77608628D01*
X58935475Y-78084819D02*
X58744999Y-78084819D01*
X58744999Y-78084819D02*
X58649761Y-78037200D01*
X58649761Y-78037200D02*
X58602142Y-77989580D01*
X58602142Y-77989580D02*
X58506904Y-77846723D01*
X58506904Y-77846723D02*
X58459285Y-77656247D01*
X58459285Y-77656247D02*
X58459285Y-77275295D01*
X58459285Y-77275295D02*
X58506904Y-77180057D01*
X58506904Y-77180057D02*
X58554523Y-77132438D01*
X58554523Y-77132438D02*
X58649761Y-77084819D01*
X58649761Y-77084819D02*
X58840237Y-77084819D01*
X58840237Y-77084819D02*
X58935475Y-77132438D01*
X58935475Y-77132438D02*
X58983094Y-77180057D01*
X58983094Y-77180057D02*
X59030713Y-77275295D01*
X59030713Y-77275295D02*
X59030713Y-77513390D01*
X59030713Y-77513390D02*
X58983094Y-77608628D01*
X58983094Y-77608628D02*
X58935475Y-77656247D01*
X58935475Y-77656247D02*
X58840237Y-77703866D01*
X58840237Y-77703866D02*
X58649761Y-77703866D01*
X58649761Y-77703866D02*
X58554523Y-77656247D01*
X58554523Y-77656247D02*
X58506904Y-77608628D01*
X58506904Y-77608628D02*
X58459285Y-77513390D01*
X52775857Y-55478819D02*
X53109190Y-55002628D01*
X53347285Y-55478819D02*
X53347285Y-54478819D01*
X53347285Y-54478819D02*
X52966333Y-54478819D01*
X52966333Y-54478819D02*
X52871095Y-54526438D01*
X52871095Y-54526438D02*
X52823476Y-54574057D01*
X52823476Y-54574057D02*
X52775857Y-54669295D01*
X52775857Y-54669295D02*
X52775857Y-54812152D01*
X52775857Y-54812152D02*
X52823476Y-54907390D01*
X52823476Y-54907390D02*
X52871095Y-54955009D01*
X52871095Y-54955009D02*
X52966333Y-55002628D01*
X52966333Y-55002628D02*
X53347285Y-55002628D01*
X52442523Y-54478819D02*
X51775857Y-54478819D01*
X51775857Y-54478819D02*
X52204428Y-55478819D01*
X50871095Y-55478819D02*
X51442523Y-55478819D01*
X51156809Y-55478819D02*
X51156809Y-54478819D01*
X51156809Y-54478819D02*
X51252047Y-54621676D01*
X51252047Y-54621676D02*
X51347285Y-54716914D01*
X51347285Y-54716914D02*
X51442523Y-54764533D01*
X52903857Y-70718819D02*
X53237190Y-70242628D01*
X53475285Y-70718819D02*
X53475285Y-69718819D01*
X53475285Y-69718819D02*
X53094333Y-69718819D01*
X53094333Y-69718819D02*
X52999095Y-69766438D01*
X52999095Y-69766438D02*
X52951476Y-69814057D01*
X52951476Y-69814057D02*
X52903857Y-69909295D01*
X52903857Y-69909295D02*
X52903857Y-70052152D01*
X52903857Y-70052152D02*
X52951476Y-70147390D01*
X52951476Y-70147390D02*
X52999095Y-70195009D01*
X52999095Y-70195009D02*
X53094333Y-70242628D01*
X53094333Y-70242628D02*
X53475285Y-70242628D01*
X52046714Y-69718819D02*
X52237190Y-69718819D01*
X52237190Y-69718819D02*
X52332428Y-69766438D01*
X52332428Y-69766438D02*
X52380047Y-69814057D01*
X52380047Y-69814057D02*
X52475285Y-69956914D01*
X52475285Y-69956914D02*
X52522904Y-70147390D01*
X52522904Y-70147390D02*
X52522904Y-70528342D01*
X52522904Y-70528342D02*
X52475285Y-70623580D01*
X52475285Y-70623580D02*
X52427666Y-70671200D01*
X52427666Y-70671200D02*
X52332428Y-70718819D01*
X52332428Y-70718819D02*
X52141952Y-70718819D01*
X52141952Y-70718819D02*
X52046714Y-70671200D01*
X52046714Y-70671200D02*
X51999095Y-70623580D01*
X51999095Y-70623580D02*
X51951476Y-70528342D01*
X51951476Y-70528342D02*
X51951476Y-70290247D01*
X51951476Y-70290247D02*
X51999095Y-70195009D01*
X51999095Y-70195009D02*
X52046714Y-70147390D01*
X52046714Y-70147390D02*
X52141952Y-70099771D01*
X52141952Y-70099771D02*
X52332428Y-70099771D01*
X52332428Y-70099771D02*
X52427666Y-70147390D01*
X52427666Y-70147390D02*
X52475285Y-70195009D01*
X52475285Y-70195009D02*
X52522904Y-70290247D01*
X51046714Y-69718819D02*
X51522904Y-69718819D01*
X51522904Y-69718819D02*
X51570523Y-70195009D01*
X51570523Y-70195009D02*
X51522904Y-70147390D01*
X51522904Y-70147390D02*
X51427666Y-70099771D01*
X51427666Y-70099771D02*
X51189571Y-70099771D01*
X51189571Y-70099771D02*
X51094333Y-70147390D01*
X51094333Y-70147390D02*
X51046714Y-70195009D01*
X51046714Y-70195009D02*
X50999095Y-70290247D01*
X50999095Y-70290247D02*
X50999095Y-70528342D01*
X50999095Y-70528342D02*
X51046714Y-70623580D01*
X51046714Y-70623580D02*
X51094333Y-70671200D01*
X51094333Y-70671200D02*
X51189571Y-70718819D01*
X51189571Y-70718819D02*
X51427666Y-70718819D01*
X51427666Y-70718819D02*
X51522904Y-70671200D01*
X51522904Y-70671200D02*
X51570523Y-70623580D01*
X59887857Y-55224819D02*
X60221190Y-54748628D01*
X60459285Y-55224819D02*
X60459285Y-54224819D01*
X60459285Y-54224819D02*
X60078333Y-54224819D01*
X60078333Y-54224819D02*
X59983095Y-54272438D01*
X59983095Y-54272438D02*
X59935476Y-54320057D01*
X59935476Y-54320057D02*
X59887857Y-54415295D01*
X59887857Y-54415295D02*
X59887857Y-54558152D01*
X59887857Y-54558152D02*
X59935476Y-54653390D01*
X59935476Y-54653390D02*
X59983095Y-54701009D01*
X59983095Y-54701009D02*
X60078333Y-54748628D01*
X60078333Y-54748628D02*
X60459285Y-54748628D01*
X59554523Y-54224819D02*
X58935476Y-54224819D01*
X58935476Y-54224819D02*
X59268809Y-54605771D01*
X59268809Y-54605771D02*
X59125952Y-54605771D01*
X59125952Y-54605771D02*
X59030714Y-54653390D01*
X59030714Y-54653390D02*
X58983095Y-54701009D01*
X58983095Y-54701009D02*
X58935476Y-54796247D01*
X58935476Y-54796247D02*
X58935476Y-55034342D01*
X58935476Y-55034342D02*
X58983095Y-55129580D01*
X58983095Y-55129580D02*
X59030714Y-55177200D01*
X59030714Y-55177200D02*
X59125952Y-55224819D01*
X59125952Y-55224819D02*
X59411666Y-55224819D01*
X59411666Y-55224819D02*
X59506904Y-55177200D01*
X59506904Y-55177200D02*
X59554523Y-55129580D01*
X58316428Y-54224819D02*
X58221190Y-54224819D01*
X58221190Y-54224819D02*
X58125952Y-54272438D01*
X58125952Y-54272438D02*
X58078333Y-54320057D01*
X58078333Y-54320057D02*
X58030714Y-54415295D01*
X58030714Y-54415295D02*
X57983095Y-54605771D01*
X57983095Y-54605771D02*
X57983095Y-54843866D01*
X57983095Y-54843866D02*
X58030714Y-55034342D01*
X58030714Y-55034342D02*
X58078333Y-55129580D01*
X58078333Y-55129580D02*
X58125952Y-55177200D01*
X58125952Y-55177200D02*
X58221190Y-55224819D01*
X58221190Y-55224819D02*
X58316428Y-55224819D01*
X58316428Y-55224819D02*
X58411666Y-55177200D01*
X58411666Y-55177200D02*
X58459285Y-55129580D01*
X58459285Y-55129580D02*
X58506904Y-55034342D01*
X58506904Y-55034342D02*
X58554523Y-54843866D01*
X58554523Y-54843866D02*
X58554523Y-54605771D01*
X58554523Y-54605771D02*
X58506904Y-54415295D01*
X58506904Y-54415295D02*
X58459285Y-54320057D01*
X58459285Y-54320057D02*
X58411666Y-54272438D01*
X58411666Y-54272438D02*
X58316428Y-54224819D01*
X53157857Y-124058819D02*
X53491190Y-123582628D01*
X53729285Y-124058819D02*
X53729285Y-123058819D01*
X53729285Y-123058819D02*
X53348333Y-123058819D01*
X53348333Y-123058819D02*
X53253095Y-123106438D01*
X53253095Y-123106438D02*
X53205476Y-123154057D01*
X53205476Y-123154057D02*
X53157857Y-123249295D01*
X53157857Y-123249295D02*
X53157857Y-123392152D01*
X53157857Y-123392152D02*
X53205476Y-123487390D01*
X53205476Y-123487390D02*
X53253095Y-123535009D01*
X53253095Y-123535009D02*
X53348333Y-123582628D01*
X53348333Y-123582628D02*
X53729285Y-123582628D01*
X52300714Y-123392152D02*
X52300714Y-124058819D01*
X52538809Y-123011200D02*
X52776904Y-123725485D01*
X52776904Y-123725485D02*
X52157857Y-123725485D01*
X51300714Y-123058819D02*
X51776904Y-123058819D01*
X51776904Y-123058819D02*
X51824523Y-123535009D01*
X51824523Y-123535009D02*
X51776904Y-123487390D01*
X51776904Y-123487390D02*
X51681666Y-123439771D01*
X51681666Y-123439771D02*
X51443571Y-123439771D01*
X51443571Y-123439771D02*
X51348333Y-123487390D01*
X51348333Y-123487390D02*
X51300714Y-123535009D01*
X51300714Y-123535009D02*
X51253095Y-123630247D01*
X51253095Y-123630247D02*
X51253095Y-123868342D01*
X51253095Y-123868342D02*
X51300714Y-123963580D01*
X51300714Y-123963580D02*
X51348333Y-124011200D01*
X51348333Y-124011200D02*
X51443571Y-124058819D01*
X51443571Y-124058819D02*
X51681666Y-124058819D01*
X51681666Y-124058819D02*
X51776904Y-124011200D01*
X51776904Y-124011200D02*
X51824523Y-123963580D01*
X52903857Y-80878819D02*
X53237190Y-80402628D01*
X53475285Y-80878819D02*
X53475285Y-79878819D01*
X53475285Y-79878819D02*
X53094333Y-79878819D01*
X53094333Y-79878819D02*
X52999095Y-79926438D01*
X52999095Y-79926438D02*
X52951476Y-79974057D01*
X52951476Y-79974057D02*
X52903857Y-80069295D01*
X52903857Y-80069295D02*
X52903857Y-80212152D01*
X52903857Y-80212152D02*
X52951476Y-80307390D01*
X52951476Y-80307390D02*
X52999095Y-80355009D01*
X52999095Y-80355009D02*
X53094333Y-80402628D01*
X53094333Y-80402628D02*
X53475285Y-80402628D01*
X52046714Y-79878819D02*
X52237190Y-79878819D01*
X52237190Y-79878819D02*
X52332428Y-79926438D01*
X52332428Y-79926438D02*
X52380047Y-79974057D01*
X52380047Y-79974057D02*
X52475285Y-80116914D01*
X52475285Y-80116914D02*
X52522904Y-80307390D01*
X52522904Y-80307390D02*
X52522904Y-80688342D01*
X52522904Y-80688342D02*
X52475285Y-80783580D01*
X52475285Y-80783580D02*
X52427666Y-80831200D01*
X52427666Y-80831200D02*
X52332428Y-80878819D01*
X52332428Y-80878819D02*
X52141952Y-80878819D01*
X52141952Y-80878819D02*
X52046714Y-80831200D01*
X52046714Y-80831200D02*
X51999095Y-80783580D01*
X51999095Y-80783580D02*
X51951476Y-80688342D01*
X51951476Y-80688342D02*
X51951476Y-80450247D01*
X51951476Y-80450247D02*
X51999095Y-80355009D01*
X51999095Y-80355009D02*
X52046714Y-80307390D01*
X52046714Y-80307390D02*
X52141952Y-80259771D01*
X52141952Y-80259771D02*
X52332428Y-80259771D01*
X52332428Y-80259771D02*
X52427666Y-80307390D01*
X52427666Y-80307390D02*
X52475285Y-80355009D01*
X52475285Y-80355009D02*
X52522904Y-80450247D01*
X50999095Y-80878819D02*
X51570523Y-80878819D01*
X51284809Y-80878819D02*
X51284809Y-79878819D01*
X51284809Y-79878819D02*
X51380047Y-80021676D01*
X51380047Y-80021676D02*
X51475285Y-80116914D01*
X51475285Y-80116914D02*
X51570523Y-80164533D01*
X59887857Y-103484819D02*
X60221190Y-103008628D01*
X60459285Y-103484819D02*
X60459285Y-102484819D01*
X60459285Y-102484819D02*
X60078333Y-102484819D01*
X60078333Y-102484819D02*
X59983095Y-102532438D01*
X59983095Y-102532438D02*
X59935476Y-102580057D01*
X59935476Y-102580057D02*
X59887857Y-102675295D01*
X59887857Y-102675295D02*
X59887857Y-102818152D01*
X59887857Y-102818152D02*
X59935476Y-102913390D01*
X59935476Y-102913390D02*
X59983095Y-102961009D01*
X59983095Y-102961009D02*
X60078333Y-103008628D01*
X60078333Y-103008628D02*
X60459285Y-103008628D01*
X58935476Y-103484819D02*
X59506904Y-103484819D01*
X59221190Y-103484819D02*
X59221190Y-102484819D01*
X59221190Y-102484819D02*
X59316428Y-102627676D01*
X59316428Y-102627676D02*
X59411666Y-102722914D01*
X59411666Y-102722914D02*
X59506904Y-102770533D01*
X58459285Y-103484819D02*
X58268809Y-103484819D01*
X58268809Y-103484819D02*
X58173571Y-103437200D01*
X58173571Y-103437200D02*
X58125952Y-103389580D01*
X58125952Y-103389580D02*
X58030714Y-103246723D01*
X58030714Y-103246723D02*
X57983095Y-103056247D01*
X57983095Y-103056247D02*
X57983095Y-102675295D01*
X57983095Y-102675295D02*
X58030714Y-102580057D01*
X58030714Y-102580057D02*
X58078333Y-102532438D01*
X58078333Y-102532438D02*
X58173571Y-102484819D01*
X58173571Y-102484819D02*
X58364047Y-102484819D01*
X58364047Y-102484819D02*
X58459285Y-102532438D01*
X58459285Y-102532438D02*
X58506904Y-102580057D01*
X58506904Y-102580057D02*
X58554523Y-102675295D01*
X58554523Y-102675295D02*
X58554523Y-102913390D01*
X58554523Y-102913390D02*
X58506904Y-103008628D01*
X58506904Y-103008628D02*
X58459285Y-103056247D01*
X58459285Y-103056247D02*
X58364047Y-103103866D01*
X58364047Y-103103866D02*
X58173571Y-103103866D01*
X58173571Y-103103866D02*
X58078333Y-103056247D01*
X58078333Y-103056247D02*
X58030714Y-103008628D01*
X58030714Y-103008628D02*
X57983095Y-102913390D01*
X59887857Y-90784819D02*
X60221190Y-90308628D01*
X60459285Y-90784819D02*
X60459285Y-89784819D01*
X60459285Y-89784819D02*
X60078333Y-89784819D01*
X60078333Y-89784819D02*
X59983095Y-89832438D01*
X59983095Y-89832438D02*
X59935476Y-89880057D01*
X59935476Y-89880057D02*
X59887857Y-89975295D01*
X59887857Y-89975295D02*
X59887857Y-90118152D01*
X59887857Y-90118152D02*
X59935476Y-90213390D01*
X59935476Y-90213390D02*
X59983095Y-90261009D01*
X59983095Y-90261009D02*
X60078333Y-90308628D01*
X60078333Y-90308628D02*
X60459285Y-90308628D01*
X58935476Y-90784819D02*
X59506904Y-90784819D01*
X59221190Y-90784819D02*
X59221190Y-89784819D01*
X59221190Y-89784819D02*
X59316428Y-89927676D01*
X59316428Y-89927676D02*
X59411666Y-90022914D01*
X59411666Y-90022914D02*
X59506904Y-90070533D01*
X58078333Y-90118152D02*
X58078333Y-90784819D01*
X58316428Y-89737200D02*
X58554523Y-90451485D01*
X58554523Y-90451485D02*
X57935476Y-90451485D01*
X59411666Y-68014819D02*
X59744999Y-67538628D01*
X59983094Y-68014819D02*
X59983094Y-67014819D01*
X59983094Y-67014819D02*
X59602142Y-67014819D01*
X59602142Y-67014819D02*
X59506904Y-67062438D01*
X59506904Y-67062438D02*
X59459285Y-67110057D01*
X59459285Y-67110057D02*
X59411666Y-67205295D01*
X59411666Y-67205295D02*
X59411666Y-67348152D01*
X59411666Y-67348152D02*
X59459285Y-67443390D01*
X59459285Y-67443390D02*
X59506904Y-67491009D01*
X59506904Y-67491009D02*
X59602142Y-67538628D01*
X59602142Y-67538628D02*
X59983094Y-67538628D01*
X58506904Y-67014819D02*
X58983094Y-67014819D01*
X58983094Y-67014819D02*
X59030713Y-67491009D01*
X59030713Y-67491009D02*
X58983094Y-67443390D01*
X58983094Y-67443390D02*
X58887856Y-67395771D01*
X58887856Y-67395771D02*
X58649761Y-67395771D01*
X58649761Y-67395771D02*
X58554523Y-67443390D01*
X58554523Y-67443390D02*
X58506904Y-67491009D01*
X58506904Y-67491009D02*
X58459285Y-67586247D01*
X58459285Y-67586247D02*
X58459285Y-67824342D01*
X58459285Y-67824342D02*
X58506904Y-67919580D01*
X58506904Y-67919580D02*
X58554523Y-67967200D01*
X58554523Y-67967200D02*
X58649761Y-68014819D01*
X58649761Y-68014819D02*
X58887856Y-68014819D01*
X58887856Y-68014819D02*
X58983094Y-67967200D01*
X58983094Y-67967200D02*
X59030713Y-67919580D01*
X52903857Y-93578819D02*
X53237190Y-93102628D01*
X53475285Y-93578819D02*
X53475285Y-92578819D01*
X53475285Y-92578819D02*
X53094333Y-92578819D01*
X53094333Y-92578819D02*
X52999095Y-92626438D01*
X52999095Y-92626438D02*
X52951476Y-92674057D01*
X52951476Y-92674057D02*
X52903857Y-92769295D01*
X52903857Y-92769295D02*
X52903857Y-92912152D01*
X52903857Y-92912152D02*
X52951476Y-93007390D01*
X52951476Y-93007390D02*
X52999095Y-93055009D01*
X52999095Y-93055009D02*
X53094333Y-93102628D01*
X53094333Y-93102628D02*
X53475285Y-93102628D01*
X51999095Y-92578819D02*
X52475285Y-92578819D01*
X52475285Y-92578819D02*
X52522904Y-93055009D01*
X52522904Y-93055009D02*
X52475285Y-93007390D01*
X52475285Y-93007390D02*
X52380047Y-92959771D01*
X52380047Y-92959771D02*
X52141952Y-92959771D01*
X52141952Y-92959771D02*
X52046714Y-93007390D01*
X52046714Y-93007390D02*
X51999095Y-93055009D01*
X51999095Y-93055009D02*
X51951476Y-93150247D01*
X51951476Y-93150247D02*
X51951476Y-93388342D01*
X51951476Y-93388342D02*
X51999095Y-93483580D01*
X51999095Y-93483580D02*
X52046714Y-93531200D01*
X52046714Y-93531200D02*
X52141952Y-93578819D01*
X52141952Y-93578819D02*
X52380047Y-93578819D01*
X52380047Y-93578819D02*
X52475285Y-93531200D01*
X52475285Y-93531200D02*
X52522904Y-93483580D01*
X51094333Y-92578819D02*
X51284809Y-92578819D01*
X51284809Y-92578819D02*
X51380047Y-92626438D01*
X51380047Y-92626438D02*
X51427666Y-92674057D01*
X51427666Y-92674057D02*
X51522904Y-92816914D01*
X51522904Y-92816914D02*
X51570523Y-93007390D01*
X51570523Y-93007390D02*
X51570523Y-93388342D01*
X51570523Y-93388342D02*
X51522904Y-93483580D01*
X51522904Y-93483580D02*
X51475285Y-93531200D01*
X51475285Y-93531200D02*
X51380047Y-93578819D01*
X51380047Y-93578819D02*
X51189571Y-93578819D01*
X51189571Y-93578819D02*
X51094333Y-93531200D01*
X51094333Y-93531200D02*
X51046714Y-93483580D01*
X51046714Y-93483580D02*
X50999095Y-93388342D01*
X50999095Y-93388342D02*
X50999095Y-93150247D01*
X50999095Y-93150247D02*
X51046714Y-93055009D01*
X51046714Y-93055009D02*
X51094333Y-93007390D01*
X51094333Y-93007390D02*
X51189571Y-92959771D01*
X51189571Y-92959771D02*
X51380047Y-92959771D01*
X51380047Y-92959771D02*
X51475285Y-93007390D01*
X51475285Y-93007390D02*
X51522904Y-93055009D01*
X51522904Y-93055009D02*
X51570523Y-93150247D01*
X59887857Y-106024819D02*
X60221190Y-105548628D01*
X60459285Y-106024819D02*
X60459285Y-105024819D01*
X60459285Y-105024819D02*
X60078333Y-105024819D01*
X60078333Y-105024819D02*
X59983095Y-105072438D01*
X59983095Y-105072438D02*
X59935476Y-105120057D01*
X59935476Y-105120057D02*
X59887857Y-105215295D01*
X59887857Y-105215295D02*
X59887857Y-105358152D01*
X59887857Y-105358152D02*
X59935476Y-105453390D01*
X59935476Y-105453390D02*
X59983095Y-105501009D01*
X59983095Y-105501009D02*
X60078333Y-105548628D01*
X60078333Y-105548628D02*
X60459285Y-105548628D01*
X59506904Y-105120057D02*
X59459285Y-105072438D01*
X59459285Y-105072438D02*
X59364047Y-105024819D01*
X59364047Y-105024819D02*
X59125952Y-105024819D01*
X59125952Y-105024819D02*
X59030714Y-105072438D01*
X59030714Y-105072438D02*
X58983095Y-105120057D01*
X58983095Y-105120057D02*
X58935476Y-105215295D01*
X58935476Y-105215295D02*
X58935476Y-105310533D01*
X58935476Y-105310533D02*
X58983095Y-105453390D01*
X58983095Y-105453390D02*
X59554523Y-106024819D01*
X59554523Y-106024819D02*
X58935476Y-106024819D01*
X58316428Y-105024819D02*
X58221190Y-105024819D01*
X58221190Y-105024819D02*
X58125952Y-105072438D01*
X58125952Y-105072438D02*
X58078333Y-105120057D01*
X58078333Y-105120057D02*
X58030714Y-105215295D01*
X58030714Y-105215295D02*
X57983095Y-105405771D01*
X57983095Y-105405771D02*
X57983095Y-105643866D01*
X57983095Y-105643866D02*
X58030714Y-105834342D01*
X58030714Y-105834342D02*
X58078333Y-105929580D01*
X58078333Y-105929580D02*
X58125952Y-105977200D01*
X58125952Y-105977200D02*
X58221190Y-106024819D01*
X58221190Y-106024819D02*
X58316428Y-106024819D01*
X58316428Y-106024819D02*
X58411666Y-105977200D01*
X58411666Y-105977200D02*
X58459285Y-105929580D01*
X58459285Y-105929580D02*
X58506904Y-105834342D01*
X58506904Y-105834342D02*
X58554523Y-105643866D01*
X58554523Y-105643866D02*
X58554523Y-105405771D01*
X58554523Y-105405771D02*
X58506904Y-105215295D01*
X58506904Y-105215295D02*
X58459285Y-105120057D01*
X58459285Y-105120057D02*
X58411666Y-105072438D01*
X58411666Y-105072438D02*
X58316428Y-105024819D01*
X53157857Y-106278819D02*
X53491190Y-105802628D01*
X53729285Y-106278819D02*
X53729285Y-105278819D01*
X53729285Y-105278819D02*
X53348333Y-105278819D01*
X53348333Y-105278819D02*
X53253095Y-105326438D01*
X53253095Y-105326438D02*
X53205476Y-105374057D01*
X53205476Y-105374057D02*
X53157857Y-105469295D01*
X53157857Y-105469295D02*
X53157857Y-105612152D01*
X53157857Y-105612152D02*
X53205476Y-105707390D01*
X53205476Y-105707390D02*
X53253095Y-105755009D01*
X53253095Y-105755009D02*
X53348333Y-105802628D01*
X53348333Y-105802628D02*
X53729285Y-105802628D01*
X52253095Y-105278819D02*
X52729285Y-105278819D01*
X52729285Y-105278819D02*
X52776904Y-105755009D01*
X52776904Y-105755009D02*
X52729285Y-105707390D01*
X52729285Y-105707390D02*
X52634047Y-105659771D01*
X52634047Y-105659771D02*
X52395952Y-105659771D01*
X52395952Y-105659771D02*
X52300714Y-105707390D01*
X52300714Y-105707390D02*
X52253095Y-105755009D01*
X52253095Y-105755009D02*
X52205476Y-105850247D01*
X52205476Y-105850247D02*
X52205476Y-106088342D01*
X52205476Y-106088342D02*
X52253095Y-106183580D01*
X52253095Y-106183580D02*
X52300714Y-106231200D01*
X52300714Y-106231200D02*
X52395952Y-106278819D01*
X52395952Y-106278819D02*
X52634047Y-106278819D01*
X52634047Y-106278819D02*
X52729285Y-106231200D01*
X52729285Y-106231200D02*
X52776904Y-106183580D01*
X51253095Y-106278819D02*
X51824523Y-106278819D01*
X51538809Y-106278819D02*
X51538809Y-105278819D01*
X51538809Y-105278819D02*
X51634047Y-105421676D01*
X51634047Y-105421676D02*
X51729285Y-105516914D01*
X51729285Y-105516914D02*
X51824523Y-105564533D01*
X53157857Y-113898819D02*
X53491190Y-113422628D01*
X53729285Y-113898819D02*
X53729285Y-112898819D01*
X53729285Y-112898819D02*
X53348333Y-112898819D01*
X53348333Y-112898819D02*
X53253095Y-112946438D01*
X53253095Y-112946438D02*
X53205476Y-112994057D01*
X53205476Y-112994057D02*
X53157857Y-113089295D01*
X53157857Y-113089295D02*
X53157857Y-113232152D01*
X53157857Y-113232152D02*
X53205476Y-113327390D01*
X53205476Y-113327390D02*
X53253095Y-113375009D01*
X53253095Y-113375009D02*
X53348333Y-113422628D01*
X53348333Y-113422628D02*
X53729285Y-113422628D01*
X52300714Y-113232152D02*
X52300714Y-113898819D01*
X52538809Y-112851200D02*
X52776904Y-113565485D01*
X52776904Y-113565485D02*
X52157857Y-113565485D01*
X51634047Y-113327390D02*
X51729285Y-113279771D01*
X51729285Y-113279771D02*
X51776904Y-113232152D01*
X51776904Y-113232152D02*
X51824523Y-113136914D01*
X51824523Y-113136914D02*
X51824523Y-113089295D01*
X51824523Y-113089295D02*
X51776904Y-112994057D01*
X51776904Y-112994057D02*
X51729285Y-112946438D01*
X51729285Y-112946438D02*
X51634047Y-112898819D01*
X51634047Y-112898819D02*
X51443571Y-112898819D01*
X51443571Y-112898819D02*
X51348333Y-112946438D01*
X51348333Y-112946438D02*
X51300714Y-112994057D01*
X51300714Y-112994057D02*
X51253095Y-113089295D01*
X51253095Y-113089295D02*
X51253095Y-113136914D01*
X51253095Y-113136914D02*
X51300714Y-113232152D01*
X51300714Y-113232152D02*
X51348333Y-113279771D01*
X51348333Y-113279771D02*
X51443571Y-113327390D01*
X51443571Y-113327390D02*
X51634047Y-113327390D01*
X51634047Y-113327390D02*
X51729285Y-113375009D01*
X51729285Y-113375009D02*
X51776904Y-113422628D01*
X51776904Y-113422628D02*
X51824523Y-113517866D01*
X51824523Y-113517866D02*
X51824523Y-113708342D01*
X51824523Y-113708342D02*
X51776904Y-113803580D01*
X51776904Y-113803580D02*
X51729285Y-113851200D01*
X51729285Y-113851200D02*
X51634047Y-113898819D01*
X51634047Y-113898819D02*
X51443571Y-113898819D01*
X51443571Y-113898819D02*
X51348333Y-113851200D01*
X51348333Y-113851200D02*
X51300714Y-113803580D01*
X51300714Y-113803580D02*
X51253095Y-113708342D01*
X51253095Y-113708342D02*
X51253095Y-113517866D01*
X51253095Y-113517866D02*
X51300714Y-113422628D01*
X51300714Y-113422628D02*
X51348333Y-113375009D01*
X51348333Y-113375009D02*
X51443571Y-113327390D01*
X59887857Y-80624819D02*
X60221190Y-80148628D01*
X60459285Y-80624819D02*
X60459285Y-79624819D01*
X60459285Y-79624819D02*
X60078333Y-79624819D01*
X60078333Y-79624819D02*
X59983095Y-79672438D01*
X59983095Y-79672438D02*
X59935476Y-79720057D01*
X59935476Y-79720057D02*
X59887857Y-79815295D01*
X59887857Y-79815295D02*
X59887857Y-79958152D01*
X59887857Y-79958152D02*
X59935476Y-80053390D01*
X59935476Y-80053390D02*
X59983095Y-80101009D01*
X59983095Y-80101009D02*
X60078333Y-80148628D01*
X60078333Y-80148628D02*
X60459285Y-80148628D01*
X58935476Y-80624819D02*
X59506904Y-80624819D01*
X59221190Y-80624819D02*
X59221190Y-79624819D01*
X59221190Y-79624819D02*
X59316428Y-79767676D01*
X59316428Y-79767676D02*
X59411666Y-79862914D01*
X59411666Y-79862914D02*
X59506904Y-79910533D01*
X58316428Y-79624819D02*
X58221190Y-79624819D01*
X58221190Y-79624819D02*
X58125952Y-79672438D01*
X58125952Y-79672438D02*
X58078333Y-79720057D01*
X58078333Y-79720057D02*
X58030714Y-79815295D01*
X58030714Y-79815295D02*
X57983095Y-80005771D01*
X57983095Y-80005771D02*
X57983095Y-80243866D01*
X57983095Y-80243866D02*
X58030714Y-80434342D01*
X58030714Y-80434342D02*
X58078333Y-80529580D01*
X58078333Y-80529580D02*
X58125952Y-80577200D01*
X58125952Y-80577200D02*
X58221190Y-80624819D01*
X58221190Y-80624819D02*
X58316428Y-80624819D01*
X58316428Y-80624819D02*
X58411666Y-80577200D01*
X58411666Y-80577200D02*
X58459285Y-80529580D01*
X58459285Y-80529580D02*
X58506904Y-80434342D01*
X58506904Y-80434342D02*
X58554523Y-80243866D01*
X58554523Y-80243866D02*
X58554523Y-80005771D01*
X58554523Y-80005771D02*
X58506904Y-79815295D01*
X58506904Y-79815295D02*
X58459285Y-79720057D01*
X58459285Y-79720057D02*
X58411666Y-79672438D01*
X58411666Y-79672438D02*
X58316428Y-79624819D01*
X52903857Y-96118819D02*
X53237190Y-95642628D01*
X53475285Y-96118819D02*
X53475285Y-95118819D01*
X53475285Y-95118819D02*
X53094333Y-95118819D01*
X53094333Y-95118819D02*
X52999095Y-95166438D01*
X52999095Y-95166438D02*
X52951476Y-95214057D01*
X52951476Y-95214057D02*
X52903857Y-95309295D01*
X52903857Y-95309295D02*
X52903857Y-95452152D01*
X52903857Y-95452152D02*
X52951476Y-95547390D01*
X52951476Y-95547390D02*
X52999095Y-95595009D01*
X52999095Y-95595009D02*
X53094333Y-95642628D01*
X53094333Y-95642628D02*
X53475285Y-95642628D01*
X51999095Y-95118819D02*
X52475285Y-95118819D01*
X52475285Y-95118819D02*
X52522904Y-95595009D01*
X52522904Y-95595009D02*
X52475285Y-95547390D01*
X52475285Y-95547390D02*
X52380047Y-95499771D01*
X52380047Y-95499771D02*
X52141952Y-95499771D01*
X52141952Y-95499771D02*
X52046714Y-95547390D01*
X52046714Y-95547390D02*
X51999095Y-95595009D01*
X51999095Y-95595009D02*
X51951476Y-95690247D01*
X51951476Y-95690247D02*
X51951476Y-95928342D01*
X51951476Y-95928342D02*
X51999095Y-96023580D01*
X51999095Y-96023580D02*
X52046714Y-96071200D01*
X52046714Y-96071200D02*
X52141952Y-96118819D01*
X52141952Y-96118819D02*
X52380047Y-96118819D01*
X52380047Y-96118819D02*
X52475285Y-96071200D01*
X52475285Y-96071200D02*
X52522904Y-96023580D01*
X51046714Y-95118819D02*
X51522904Y-95118819D01*
X51522904Y-95118819D02*
X51570523Y-95595009D01*
X51570523Y-95595009D02*
X51522904Y-95547390D01*
X51522904Y-95547390D02*
X51427666Y-95499771D01*
X51427666Y-95499771D02*
X51189571Y-95499771D01*
X51189571Y-95499771D02*
X51094333Y-95547390D01*
X51094333Y-95547390D02*
X51046714Y-95595009D01*
X51046714Y-95595009D02*
X50999095Y-95690247D01*
X50999095Y-95690247D02*
X50999095Y-95928342D01*
X50999095Y-95928342D02*
X51046714Y-96023580D01*
X51046714Y-96023580D02*
X51094333Y-96071200D01*
X51094333Y-96071200D02*
X51189571Y-96118819D01*
X51189571Y-96118819D02*
X51427666Y-96118819D01*
X51427666Y-96118819D02*
X51522904Y-96071200D01*
X51522904Y-96071200D02*
X51570523Y-96023580D01*
X52903857Y-75798819D02*
X53237190Y-75322628D01*
X53475285Y-75798819D02*
X53475285Y-74798819D01*
X53475285Y-74798819D02*
X53094333Y-74798819D01*
X53094333Y-74798819D02*
X52999095Y-74846438D01*
X52999095Y-74846438D02*
X52951476Y-74894057D01*
X52951476Y-74894057D02*
X52903857Y-74989295D01*
X52903857Y-74989295D02*
X52903857Y-75132152D01*
X52903857Y-75132152D02*
X52951476Y-75227390D01*
X52951476Y-75227390D02*
X52999095Y-75275009D01*
X52999095Y-75275009D02*
X53094333Y-75322628D01*
X53094333Y-75322628D02*
X53475285Y-75322628D01*
X52046714Y-74798819D02*
X52237190Y-74798819D01*
X52237190Y-74798819D02*
X52332428Y-74846438D01*
X52332428Y-74846438D02*
X52380047Y-74894057D01*
X52380047Y-74894057D02*
X52475285Y-75036914D01*
X52475285Y-75036914D02*
X52522904Y-75227390D01*
X52522904Y-75227390D02*
X52522904Y-75608342D01*
X52522904Y-75608342D02*
X52475285Y-75703580D01*
X52475285Y-75703580D02*
X52427666Y-75751200D01*
X52427666Y-75751200D02*
X52332428Y-75798819D01*
X52332428Y-75798819D02*
X52141952Y-75798819D01*
X52141952Y-75798819D02*
X52046714Y-75751200D01*
X52046714Y-75751200D02*
X51999095Y-75703580D01*
X51999095Y-75703580D02*
X51951476Y-75608342D01*
X51951476Y-75608342D02*
X51951476Y-75370247D01*
X51951476Y-75370247D02*
X51999095Y-75275009D01*
X51999095Y-75275009D02*
X52046714Y-75227390D01*
X52046714Y-75227390D02*
X52141952Y-75179771D01*
X52141952Y-75179771D02*
X52332428Y-75179771D01*
X52332428Y-75179771D02*
X52427666Y-75227390D01*
X52427666Y-75227390D02*
X52475285Y-75275009D01*
X52475285Y-75275009D02*
X52522904Y-75370247D01*
X51618142Y-74798819D02*
X50999095Y-74798819D01*
X50999095Y-74798819D02*
X51332428Y-75179771D01*
X51332428Y-75179771D02*
X51189571Y-75179771D01*
X51189571Y-75179771D02*
X51094333Y-75227390D01*
X51094333Y-75227390D02*
X51046714Y-75275009D01*
X51046714Y-75275009D02*
X50999095Y-75370247D01*
X50999095Y-75370247D02*
X50999095Y-75608342D01*
X50999095Y-75608342D02*
X51046714Y-75703580D01*
X51046714Y-75703580D02*
X51094333Y-75751200D01*
X51094333Y-75751200D02*
X51189571Y-75798819D01*
X51189571Y-75798819D02*
X51475285Y-75798819D01*
X51475285Y-75798819D02*
X51570523Y-75751200D01*
X51570523Y-75751200D02*
X51618142Y-75703580D01*
X52775857Y-63098819D02*
X53109190Y-62622628D01*
X53347285Y-63098819D02*
X53347285Y-62098819D01*
X53347285Y-62098819D02*
X52966333Y-62098819D01*
X52966333Y-62098819D02*
X52871095Y-62146438D01*
X52871095Y-62146438D02*
X52823476Y-62194057D01*
X52823476Y-62194057D02*
X52775857Y-62289295D01*
X52775857Y-62289295D02*
X52775857Y-62432152D01*
X52775857Y-62432152D02*
X52823476Y-62527390D01*
X52823476Y-62527390D02*
X52871095Y-62575009D01*
X52871095Y-62575009D02*
X52966333Y-62622628D01*
X52966333Y-62622628D02*
X53347285Y-62622628D01*
X51918714Y-62098819D02*
X52109190Y-62098819D01*
X52109190Y-62098819D02*
X52204428Y-62146438D01*
X52204428Y-62146438D02*
X52252047Y-62194057D01*
X52252047Y-62194057D02*
X52347285Y-62336914D01*
X52347285Y-62336914D02*
X52394904Y-62527390D01*
X52394904Y-62527390D02*
X52394904Y-62908342D01*
X52394904Y-62908342D02*
X52347285Y-63003580D01*
X52347285Y-63003580D02*
X52299666Y-63051200D01*
X52299666Y-63051200D02*
X52204428Y-63098819D01*
X52204428Y-63098819D02*
X52013952Y-63098819D01*
X52013952Y-63098819D02*
X51918714Y-63051200D01*
X51918714Y-63051200D02*
X51871095Y-63003580D01*
X51871095Y-63003580D02*
X51823476Y-62908342D01*
X51823476Y-62908342D02*
X51823476Y-62670247D01*
X51823476Y-62670247D02*
X51871095Y-62575009D01*
X51871095Y-62575009D02*
X51918714Y-62527390D01*
X51918714Y-62527390D02*
X52013952Y-62479771D01*
X52013952Y-62479771D02*
X52204428Y-62479771D01*
X52204428Y-62479771D02*
X52299666Y-62527390D01*
X52299666Y-62527390D02*
X52347285Y-62575009D01*
X52347285Y-62575009D02*
X52394904Y-62670247D01*
X51252047Y-62527390D02*
X51347285Y-62479771D01*
X51347285Y-62479771D02*
X51394904Y-62432152D01*
X51394904Y-62432152D02*
X51442523Y-62336914D01*
X51442523Y-62336914D02*
X51442523Y-62289295D01*
X51442523Y-62289295D02*
X51394904Y-62194057D01*
X51394904Y-62194057D02*
X51347285Y-62146438D01*
X51347285Y-62146438D02*
X51252047Y-62098819D01*
X51252047Y-62098819D02*
X51061571Y-62098819D01*
X51061571Y-62098819D02*
X50966333Y-62146438D01*
X50966333Y-62146438D02*
X50918714Y-62194057D01*
X50918714Y-62194057D02*
X50871095Y-62289295D01*
X50871095Y-62289295D02*
X50871095Y-62336914D01*
X50871095Y-62336914D02*
X50918714Y-62432152D01*
X50918714Y-62432152D02*
X50966333Y-62479771D01*
X50966333Y-62479771D02*
X51061571Y-62527390D01*
X51061571Y-62527390D02*
X51252047Y-62527390D01*
X51252047Y-62527390D02*
X51347285Y-62575009D01*
X51347285Y-62575009D02*
X51394904Y-62622628D01*
X51394904Y-62622628D02*
X51442523Y-62717866D01*
X51442523Y-62717866D02*
X51442523Y-62908342D01*
X51442523Y-62908342D02*
X51394904Y-63003580D01*
X51394904Y-63003580D02*
X51347285Y-63051200D01*
X51347285Y-63051200D02*
X51252047Y-63098819D01*
X51252047Y-63098819D02*
X51061571Y-63098819D01*
X51061571Y-63098819D02*
X50966333Y-63051200D01*
X50966333Y-63051200D02*
X50918714Y-63003580D01*
X50918714Y-63003580D02*
X50871095Y-62908342D01*
X50871095Y-62908342D02*
X50871095Y-62717866D01*
X50871095Y-62717866D02*
X50918714Y-62622628D01*
X50918714Y-62622628D02*
X50966333Y-62575009D01*
X50966333Y-62575009D02*
X51061571Y-62527390D01*
X52903857Y-65638819D02*
X53237190Y-65162628D01*
X53475285Y-65638819D02*
X53475285Y-64638819D01*
X53475285Y-64638819D02*
X53094333Y-64638819D01*
X53094333Y-64638819D02*
X52999095Y-64686438D01*
X52999095Y-64686438D02*
X52951476Y-64734057D01*
X52951476Y-64734057D02*
X52903857Y-64829295D01*
X52903857Y-64829295D02*
X52903857Y-64972152D01*
X52903857Y-64972152D02*
X52951476Y-65067390D01*
X52951476Y-65067390D02*
X52999095Y-65115009D01*
X52999095Y-65115009D02*
X53094333Y-65162628D01*
X53094333Y-65162628D02*
X53475285Y-65162628D01*
X52046714Y-64638819D02*
X52237190Y-64638819D01*
X52237190Y-64638819D02*
X52332428Y-64686438D01*
X52332428Y-64686438D02*
X52380047Y-64734057D01*
X52380047Y-64734057D02*
X52475285Y-64876914D01*
X52475285Y-64876914D02*
X52522904Y-65067390D01*
X52522904Y-65067390D02*
X52522904Y-65448342D01*
X52522904Y-65448342D02*
X52475285Y-65543580D01*
X52475285Y-65543580D02*
X52427666Y-65591200D01*
X52427666Y-65591200D02*
X52332428Y-65638819D01*
X52332428Y-65638819D02*
X52141952Y-65638819D01*
X52141952Y-65638819D02*
X52046714Y-65591200D01*
X52046714Y-65591200D02*
X51999095Y-65543580D01*
X51999095Y-65543580D02*
X51951476Y-65448342D01*
X51951476Y-65448342D02*
X51951476Y-65210247D01*
X51951476Y-65210247D02*
X51999095Y-65115009D01*
X51999095Y-65115009D02*
X52046714Y-65067390D01*
X52046714Y-65067390D02*
X52141952Y-65019771D01*
X52141952Y-65019771D02*
X52332428Y-65019771D01*
X52332428Y-65019771D02*
X52427666Y-65067390D01*
X52427666Y-65067390D02*
X52475285Y-65115009D01*
X52475285Y-65115009D02*
X52522904Y-65210247D01*
X51618142Y-64638819D02*
X50951476Y-64638819D01*
X50951476Y-64638819D02*
X51380047Y-65638819D01*
X59887857Y-108564819D02*
X60221190Y-108088628D01*
X60459285Y-108564819D02*
X60459285Y-107564819D01*
X60459285Y-107564819D02*
X60078333Y-107564819D01*
X60078333Y-107564819D02*
X59983095Y-107612438D01*
X59983095Y-107612438D02*
X59935476Y-107660057D01*
X59935476Y-107660057D02*
X59887857Y-107755295D01*
X59887857Y-107755295D02*
X59887857Y-107898152D01*
X59887857Y-107898152D02*
X59935476Y-107993390D01*
X59935476Y-107993390D02*
X59983095Y-108041009D01*
X59983095Y-108041009D02*
X60078333Y-108088628D01*
X60078333Y-108088628D02*
X60459285Y-108088628D01*
X59506904Y-107660057D02*
X59459285Y-107612438D01*
X59459285Y-107612438D02*
X59364047Y-107564819D01*
X59364047Y-107564819D02*
X59125952Y-107564819D01*
X59125952Y-107564819D02*
X59030714Y-107612438D01*
X59030714Y-107612438D02*
X58983095Y-107660057D01*
X58983095Y-107660057D02*
X58935476Y-107755295D01*
X58935476Y-107755295D02*
X58935476Y-107850533D01*
X58935476Y-107850533D02*
X58983095Y-107993390D01*
X58983095Y-107993390D02*
X59554523Y-108564819D01*
X59554523Y-108564819D02*
X58935476Y-108564819D01*
X57983095Y-108564819D02*
X58554523Y-108564819D01*
X58268809Y-108564819D02*
X58268809Y-107564819D01*
X58268809Y-107564819D02*
X58364047Y-107707676D01*
X58364047Y-107707676D02*
X58459285Y-107802914D01*
X58459285Y-107802914D02*
X58554523Y-107850533D01*
X59887857Y-95864819D02*
X60221190Y-95388628D01*
X60459285Y-95864819D02*
X60459285Y-94864819D01*
X60459285Y-94864819D02*
X60078333Y-94864819D01*
X60078333Y-94864819D02*
X59983095Y-94912438D01*
X59983095Y-94912438D02*
X59935476Y-94960057D01*
X59935476Y-94960057D02*
X59887857Y-95055295D01*
X59887857Y-95055295D02*
X59887857Y-95198152D01*
X59887857Y-95198152D02*
X59935476Y-95293390D01*
X59935476Y-95293390D02*
X59983095Y-95341009D01*
X59983095Y-95341009D02*
X60078333Y-95388628D01*
X60078333Y-95388628D02*
X60459285Y-95388628D01*
X58935476Y-95864819D02*
X59506904Y-95864819D01*
X59221190Y-95864819D02*
X59221190Y-94864819D01*
X59221190Y-94864819D02*
X59316428Y-95007676D01*
X59316428Y-95007676D02*
X59411666Y-95102914D01*
X59411666Y-95102914D02*
X59506904Y-95150533D01*
X58078333Y-94864819D02*
X58268809Y-94864819D01*
X58268809Y-94864819D02*
X58364047Y-94912438D01*
X58364047Y-94912438D02*
X58411666Y-94960057D01*
X58411666Y-94960057D02*
X58506904Y-95102914D01*
X58506904Y-95102914D02*
X58554523Y-95293390D01*
X58554523Y-95293390D02*
X58554523Y-95674342D01*
X58554523Y-95674342D02*
X58506904Y-95769580D01*
X58506904Y-95769580D02*
X58459285Y-95817200D01*
X58459285Y-95817200D02*
X58364047Y-95864819D01*
X58364047Y-95864819D02*
X58173571Y-95864819D01*
X58173571Y-95864819D02*
X58078333Y-95817200D01*
X58078333Y-95817200D02*
X58030714Y-95769580D01*
X58030714Y-95769580D02*
X57983095Y-95674342D01*
X57983095Y-95674342D02*
X57983095Y-95436247D01*
X57983095Y-95436247D02*
X58030714Y-95341009D01*
X58030714Y-95341009D02*
X58078333Y-95293390D01*
X58078333Y-95293390D02*
X58173571Y-95245771D01*
X58173571Y-95245771D02*
X58364047Y-95245771D01*
X58364047Y-95245771D02*
X58459285Y-95293390D01*
X58459285Y-95293390D02*
X58506904Y-95341009D01*
X58506904Y-95341009D02*
X58554523Y-95436247D01*
X52903857Y-68148819D02*
X53237190Y-67672628D01*
X53475285Y-68148819D02*
X53475285Y-67148819D01*
X53475285Y-67148819D02*
X53094333Y-67148819D01*
X53094333Y-67148819D02*
X52999095Y-67196438D01*
X52999095Y-67196438D02*
X52951476Y-67244057D01*
X52951476Y-67244057D02*
X52903857Y-67339295D01*
X52903857Y-67339295D02*
X52903857Y-67482152D01*
X52903857Y-67482152D02*
X52951476Y-67577390D01*
X52951476Y-67577390D02*
X52999095Y-67625009D01*
X52999095Y-67625009D02*
X53094333Y-67672628D01*
X53094333Y-67672628D02*
X53475285Y-67672628D01*
X52046714Y-67148819D02*
X52237190Y-67148819D01*
X52237190Y-67148819D02*
X52332428Y-67196438D01*
X52332428Y-67196438D02*
X52380047Y-67244057D01*
X52380047Y-67244057D02*
X52475285Y-67386914D01*
X52475285Y-67386914D02*
X52522904Y-67577390D01*
X52522904Y-67577390D02*
X52522904Y-67958342D01*
X52522904Y-67958342D02*
X52475285Y-68053580D01*
X52475285Y-68053580D02*
X52427666Y-68101200D01*
X52427666Y-68101200D02*
X52332428Y-68148819D01*
X52332428Y-68148819D02*
X52141952Y-68148819D01*
X52141952Y-68148819D02*
X52046714Y-68101200D01*
X52046714Y-68101200D02*
X51999095Y-68053580D01*
X51999095Y-68053580D02*
X51951476Y-67958342D01*
X51951476Y-67958342D02*
X51951476Y-67720247D01*
X51951476Y-67720247D02*
X51999095Y-67625009D01*
X51999095Y-67625009D02*
X52046714Y-67577390D01*
X52046714Y-67577390D02*
X52141952Y-67529771D01*
X52141952Y-67529771D02*
X52332428Y-67529771D01*
X52332428Y-67529771D02*
X52427666Y-67577390D01*
X52427666Y-67577390D02*
X52475285Y-67625009D01*
X52475285Y-67625009D02*
X52522904Y-67720247D01*
X51094333Y-67148819D02*
X51284809Y-67148819D01*
X51284809Y-67148819D02*
X51380047Y-67196438D01*
X51380047Y-67196438D02*
X51427666Y-67244057D01*
X51427666Y-67244057D02*
X51522904Y-67386914D01*
X51522904Y-67386914D02*
X51570523Y-67577390D01*
X51570523Y-67577390D02*
X51570523Y-67958342D01*
X51570523Y-67958342D02*
X51522904Y-68053580D01*
X51522904Y-68053580D02*
X51475285Y-68101200D01*
X51475285Y-68101200D02*
X51380047Y-68148819D01*
X51380047Y-68148819D02*
X51189571Y-68148819D01*
X51189571Y-68148819D02*
X51094333Y-68101200D01*
X51094333Y-68101200D02*
X51046714Y-68053580D01*
X51046714Y-68053580D02*
X50999095Y-67958342D01*
X50999095Y-67958342D02*
X50999095Y-67720247D01*
X50999095Y-67720247D02*
X51046714Y-67625009D01*
X51046714Y-67625009D02*
X51094333Y-67577390D01*
X51094333Y-67577390D02*
X51189571Y-67529771D01*
X51189571Y-67529771D02*
X51380047Y-67529771D01*
X51380047Y-67529771D02*
X51475285Y-67577390D01*
X51475285Y-67577390D02*
X51522904Y-67625009D01*
X51522904Y-67625009D02*
X51570523Y-67720247D01*
X53157857Y-121518819D02*
X53491190Y-121042628D01*
X53729285Y-121518819D02*
X53729285Y-120518819D01*
X53729285Y-120518819D02*
X53348333Y-120518819D01*
X53348333Y-120518819D02*
X53253095Y-120566438D01*
X53253095Y-120566438D02*
X53205476Y-120614057D01*
X53205476Y-120614057D02*
X53157857Y-120709295D01*
X53157857Y-120709295D02*
X53157857Y-120852152D01*
X53157857Y-120852152D02*
X53205476Y-120947390D01*
X53205476Y-120947390D02*
X53253095Y-120995009D01*
X53253095Y-120995009D02*
X53348333Y-121042628D01*
X53348333Y-121042628D02*
X53729285Y-121042628D01*
X52300714Y-120852152D02*
X52300714Y-121518819D01*
X52538809Y-120471200D02*
X52776904Y-121185485D01*
X52776904Y-121185485D02*
X52157857Y-121185485D01*
X51348333Y-120518819D02*
X51538809Y-120518819D01*
X51538809Y-120518819D02*
X51634047Y-120566438D01*
X51634047Y-120566438D02*
X51681666Y-120614057D01*
X51681666Y-120614057D02*
X51776904Y-120756914D01*
X51776904Y-120756914D02*
X51824523Y-120947390D01*
X51824523Y-120947390D02*
X51824523Y-121328342D01*
X51824523Y-121328342D02*
X51776904Y-121423580D01*
X51776904Y-121423580D02*
X51729285Y-121471200D01*
X51729285Y-121471200D02*
X51634047Y-121518819D01*
X51634047Y-121518819D02*
X51443571Y-121518819D01*
X51443571Y-121518819D02*
X51348333Y-121471200D01*
X51348333Y-121471200D02*
X51300714Y-121423580D01*
X51300714Y-121423580D02*
X51253095Y-121328342D01*
X51253095Y-121328342D02*
X51253095Y-121090247D01*
X51253095Y-121090247D02*
X51300714Y-120995009D01*
X51300714Y-120995009D02*
X51348333Y-120947390D01*
X51348333Y-120947390D02*
X51443571Y-120899771D01*
X51443571Y-120899771D02*
X51634047Y-120899771D01*
X51634047Y-120899771D02*
X51729285Y-120947390D01*
X51729285Y-120947390D02*
X51776904Y-120995009D01*
X51776904Y-120995009D02*
X51824523Y-121090247D01*
D11*
%TO.C,R7*%
X59482258Y-70597500D02*
X59007742Y-70597500D01*
X59482258Y-71642500D02*
X59007742Y-71642500D01*
%TO.C,R50*%
X52752258Y-106411500D02*
X52277742Y-106411500D01*
X52752258Y-107456500D02*
X52277742Y-107456500D01*
%TO.C,R13*%
X59482258Y-85837500D02*
X59007742Y-85837500D01*
X59482258Y-86882500D02*
X59007742Y-86882500D01*
%TO.C,R8*%
X59482258Y-73137500D02*
X59007742Y-73137500D01*
X59482258Y-74182500D02*
X59007742Y-74182500D01*
%TO.C,R70*%
X52370258Y-55611500D02*
X51895742Y-55611500D01*
X52370258Y-56656500D02*
X51895742Y-56656500D01*
%TO.C,R11*%
X59482258Y-80757500D02*
X59007742Y-80757500D01*
X59482258Y-81802500D02*
X59007742Y-81802500D01*
%TO.C,R44*%
X52752258Y-124191500D02*
X52277742Y-124191500D01*
X52752258Y-125236500D02*
X52277742Y-125236500D01*
%TO.C,R62*%
X52498258Y-75931500D02*
X52023742Y-75931500D01*
X52498258Y-76976500D02*
X52023742Y-76976500D01*
%TO.C,R6*%
X59482258Y-68057500D02*
X59007742Y-68057500D01*
X59482258Y-69102500D02*
X59007742Y-69102500D01*
%TO.C,R69*%
X52370258Y-58151500D02*
X51895742Y-58151500D01*
X52370258Y-59196500D02*
X51895742Y-59196500D01*
%TO.C,R18*%
X59482258Y-98537500D02*
X59007742Y-98537500D01*
X59482258Y-99582500D02*
X59007742Y-99582500D01*
%TO.C,R54*%
X52498258Y-96251500D02*
X52023742Y-96251500D01*
X52498258Y-97296500D02*
X52023742Y-97296500D01*
%TO.C,R17*%
X59482258Y-95997500D02*
X59007742Y-95997500D01*
X59482258Y-97042500D02*
X59007742Y-97042500D01*
%TO.C,R15*%
X59482258Y-90917500D02*
X59007742Y-90917500D01*
X59482258Y-91962500D02*
X59007742Y-91962500D01*
%TO.C,R22*%
X59482258Y-108697500D02*
X59007742Y-108697500D01*
X59482258Y-109742500D02*
X59007742Y-109742500D01*
%TO.C,R52*%
X52498258Y-101331500D02*
X52023742Y-101331500D01*
X52498258Y-102376500D02*
X52023742Y-102376500D01*
%TO.C,R49*%
X52752258Y-108951500D02*
X52277742Y-108951500D01*
X52752258Y-109996500D02*
X52277742Y-109996500D01*
%TO.C,R3*%
X59482258Y-60437500D02*
X59007742Y-60437500D01*
X59482258Y-61482500D02*
X59007742Y-61482500D01*
%TO.C,R28*%
X59482258Y-123937500D02*
X59007742Y-123937500D01*
X59482258Y-124982500D02*
X59007742Y-124982500D01*
%TO.C,R2*%
X59482258Y-57897500D02*
X59007742Y-57897500D01*
X59482258Y-58942500D02*
X59007742Y-58942500D01*
%TO.C,R1*%
X59482258Y-55357500D02*
X59007742Y-55357500D01*
X59482258Y-56402500D02*
X59007742Y-56402500D01*
%TO.C,R4*%
X59482258Y-62977500D02*
X59007742Y-62977500D01*
X59482258Y-64022500D02*
X59007742Y-64022500D01*
%TO.C,R57*%
X52498258Y-88631500D02*
X52023742Y-88631500D01*
X52498258Y-89676500D02*
X52023742Y-89676500D01*
%TO.C,R60*%
X52498258Y-81011500D02*
X52023742Y-81011500D01*
X52498258Y-82056500D02*
X52023742Y-82056500D01*
%TO.C,R58*%
X52498258Y-86061500D02*
X52023742Y-86061500D01*
X52498258Y-87106500D02*
X52023742Y-87106500D01*
%TO.C,R47*%
X52752258Y-116571500D02*
X52277742Y-116571500D01*
X52752258Y-117616500D02*
X52277742Y-117616500D01*
%TO.C,R64*%
X52498258Y-70851500D02*
X52023742Y-70851500D01*
X52498258Y-71896500D02*
X52023742Y-71896500D01*
%TO.C,R53*%
X52498258Y-98791500D02*
X52023742Y-98791500D01*
X52498258Y-99836500D02*
X52023742Y-99836500D01*
%TO.C,R59*%
X52498258Y-83551500D02*
X52023742Y-83551500D01*
X52498258Y-84596500D02*
X52023742Y-84596500D01*
%TO.C,R23*%
X59482258Y-111237500D02*
X59007742Y-111237500D01*
X59482258Y-112282500D02*
X59007742Y-112282500D01*
%TO.C,R12*%
X59482258Y-83297500D02*
X59007742Y-83297500D01*
X59482258Y-84342500D02*
X59007742Y-84342500D01*
%TO.C,R9*%
X59482258Y-75677500D02*
X59007742Y-75677500D01*
X59482258Y-76722500D02*
X59007742Y-76722500D01*
%TO.C,R71*%
X52370258Y-53071500D02*
X51895742Y-53071500D01*
X52370258Y-54116500D02*
X51895742Y-54116500D01*
%TO.C,R65*%
X52498258Y-68311500D02*
X52023742Y-68311500D01*
X52498258Y-69356500D02*
X52023742Y-69356500D01*
%TO.C,R30*%
X59482258Y-52817500D02*
X59007742Y-52817500D01*
X59482258Y-53862500D02*
X59007742Y-53862500D01*
%TO.C,R45*%
X52752258Y-121651500D02*
X52277742Y-121651500D01*
X52752258Y-122696500D02*
X52277742Y-122696500D01*
%TO.C,R61*%
X52498258Y-78471500D02*
X52023742Y-78471500D01*
X52498258Y-79516500D02*
X52023742Y-79516500D01*
%TO.C,R19*%
X59482258Y-101077500D02*
X59007742Y-101077500D01*
X59482258Y-102122500D02*
X59007742Y-102122500D01*
%TO.C,R14*%
X59482258Y-88377500D02*
X59007742Y-88377500D01*
X59482258Y-89422500D02*
X59007742Y-89422500D01*
%TO.C,R5*%
X59482258Y-65517500D02*
X59007742Y-65517500D01*
X59482258Y-66562500D02*
X59007742Y-66562500D01*
%TO.C,R56*%
X52498258Y-91171500D02*
X52023742Y-91171500D01*
X52498258Y-92216500D02*
X52023742Y-92216500D01*
%TO.C,R20*%
X59482258Y-103617500D02*
X59007742Y-103617500D01*
X59482258Y-104662500D02*
X59007742Y-104662500D01*
%TO.C,R51*%
X52752258Y-103871500D02*
X52277742Y-103871500D01*
X52752258Y-104916500D02*
X52277742Y-104916500D01*
%TO.C,R48*%
X52752258Y-111491500D02*
X52277742Y-111491500D01*
X52752258Y-112536500D02*
X52277742Y-112536500D01*
%TO.C,R10*%
X59482258Y-78217500D02*
X59007742Y-78217500D01*
X59482258Y-79262500D02*
X59007742Y-79262500D01*
%TO.C,R55*%
X52498258Y-93711500D02*
X52023742Y-93711500D01*
X52498258Y-94756500D02*
X52023742Y-94756500D01*
%TO.C,R63*%
X52498258Y-73391500D02*
X52023742Y-73391500D01*
X52498258Y-74436500D02*
X52023742Y-74436500D01*
%TO.C,R68*%
X52370258Y-60691500D02*
X51895742Y-60691500D01*
X52370258Y-61736500D02*
X51895742Y-61736500D01*
%TO.C,R67*%
X52498258Y-63231500D02*
X52023742Y-63231500D01*
X52498258Y-64276500D02*
X52023742Y-64276500D01*
%TO.C,R21*%
X59482258Y-106157500D02*
X59007742Y-106157500D01*
X59482258Y-107202500D02*
X59007742Y-107202500D01*
%TO.C,R16*%
X59482258Y-93457500D02*
X59007742Y-93457500D01*
X59482258Y-94502500D02*
X59007742Y-94502500D01*
%TO.C,R66*%
X52498258Y-65741500D02*
X52023742Y-65741500D01*
X52498258Y-66786500D02*
X52023742Y-66786500D01*
%TO.C,R46*%
X52752258Y-119111500D02*
X52277742Y-119111500D01*
X52752258Y-120156500D02*
X52277742Y-120156500D01*
%TD*%
M02*
