M48
; DRILL file {KiCad 8.0.6-1.fc41} date 2024-12-08T17:37:53+0200
; FORMAT={-:-/ absolute / inch / decimal}
; #@! TF.CreationDate,2024-12-08T17:37:53+02:00
; #@! TF.GenerationSoftware,Kicad,Pcbnew,8.0.6-1.fc41
; #@! TF.FileFunction,Plated,1,2,PTH
FMAT,2
INCH
; #@! TA.AperFunction,Plated,PTH,ViaDrill
T1C0.0118
; #@! TA.AperFunction,Plated,PTH,ComponentDrill
T2C0.0394
%
G90
G05
T1
X2.2588Y-3.9726
X2.2836Y-4.5533
X2.3173Y-3.8582
X2.379Y-3.7529
X2.42Y-4.55
X2.42Y-4.65
X2.42Y-4.79
X2.5037Y-3.4359
X2.5037Y-3.9561
X2.5273Y-3.8323
X2.543Y-2.2998
X2.5498Y-4.0587
X2.5633Y-2.227
X2.5781Y-3.9727
X2.5959Y-2.866
X2.5973Y-3.9266
X2.6066Y-4.1501
X2.6085Y-2.3985
X2.6119Y-2.5118
X2.7Y-4.48
X2.71Y-3.27
X2.7152Y-3.4029
X2.7287Y-3.9251
X2.7331Y-2.53
X2.7489Y-2.6363
X2.7593Y-3.4594
X2.7712Y-4.7123
X2.7839Y-3.9726
X2.7918Y-3.7506
X2.8Y-4.45
X2.8205Y-3.4136
X2.8205Y-2.6216
X2.8264Y-3.8582
X2.8341Y-4.0558
X2.8424Y-4.2245
X2.845Y-4.2749
X2.8822Y-3.8326
X2.8851Y-3.4082
X2.8904Y-2.5429
X2.92Y-2.7
X2.9202Y-3.4098
X2.9519Y-2.3237
X2.9584Y-2.2387
X2.9589Y-4.8383
X2.97Y-3.27
X2.9714Y-2.1408
X2.998Y-2.6716
X3.01Y-1.98
X3.0108Y-2.0608
X3.02Y-2.7
X3.02Y-2.87
X3.05Y-3.4098
X3.07Y-4.56
X3.0728Y-2.7179
X3.1124Y-2.6669
X3.1296Y-3.4696
X3.1783Y-2.9726
X3.2099Y-2.6716
X3.2108Y-4.2477
X3.2242Y-2.076
X3.24Y-3.07
X3.25Y-3.41
X3.2527Y-2.275
X3.2527Y-2.325
X3.26Y-2.57
X3.26Y-2.6943
X3.286Y-2.87
X3.2913Y-3.07
X3.3043Y-2.2952
X3.3094Y-3.9266
X3.3122Y-2.3916
X3.3188Y-2.5351
X3.3363Y-2.25
X3.3541Y-3.436
X3.3618Y-2.5432
X3.3643Y-2.6753
X3.417Y-2.7101
X3.4392Y-2.6761
X3.45Y-2.59
X3.46Y-2.37
X3.4602Y-2.3138
X3.4676Y-2.152
X3.478Y-2.228
X3.4917Y-2.6744
X3.5043Y-2.4348
X3.5158Y-2.3577
X3.52Y-2.27
X3.5201Y-2.469
X3.5278Y-2.3906
X3.5471Y-2.3319
X3.5539Y-3.38
X3.5721Y-2.6744
X3.58Y-2.58
X3.584Y-2.7179
X3.59Y-4.56
X3.6566Y-2.6744
X3.6745Y-2.7726
X3.6875Y-2.414
X3.7093Y-2.6503
X3.72Y-2.8764
X3.7447Y-2.1803
X3.87Y-2.27
X3.9087Y-2.5234
X3.91Y-2.59
X3.9263Y-2.171
X3.93Y-2.8689
X4.01Y-3.17
X4.13Y-2.97
X4.15Y-3.17
X4.3263Y-2.6714
X4.33Y-2.97
X4.6043Y-2.5234
X4.6044Y-2.1812
X4.68Y-2.29
X4.71Y-2.59
T2
X2.19Y-2.11
X2.19Y-2.21
X2.19Y-2.31
X2.19Y-2.41
X2.19Y-2.51
X2.19Y-2.61
X2.19Y-2.71
X2.19Y-2.81
X2.19Y-2.91
X2.19Y-3.01
X2.19Y-3.11
X2.19Y-3.21
X2.19Y-3.31
X2.19Y-3.41
X2.19Y-3.51
X2.19Y-3.61
X2.19Y-3.71
X2.19Y-3.81
X2.19Y-3.91
X2.19Y-4.01
X2.19Y-4.11
X2.19Y-4.21
X2.19Y-4.31
X2.19Y-4.41
X2.19Y-4.51
X2.19Y-4.61
X2.19Y-4.71
X2.19Y-4.81
X2.19Y-4.91
X2.19Y-5.01
X4.4Y-2.2
X4.4Y-2.3
X4.4Y-2.4
X4.4Y-2.5
X4.4Y-2.6
X4.4Y-2.7
X4.4Y-2.8
X4.4Y-2.9
X4.4Y-3.0
X4.4Y-3.1
X4.4Y-3.2
X4.4Y-3.3
X4.4Y-3.4
X4.4Y-3.5
X4.4Y-3.6
X4.4Y-3.7
X4.4Y-3.8
X4.5Y-2.2
X4.5Y-2.3
X4.5Y-2.4
X4.5Y-2.5
X4.5Y-2.6
X4.5Y-2.7
X4.5Y-2.8
X4.5Y-2.9
X4.5Y-3.0
X4.5Y-3.1
X4.5Y-3.2
X4.5Y-3.3
X4.5Y-3.4
X4.5Y-3.5
X4.5Y-3.6
X4.5Y-3.7
X4.5Y-3.8
M30
