%TF.GenerationSoftware,KiCad,Pcbnew,8.0.6-1.fc41*%
%TF.CreationDate,2024-12-08T17:17:20+02:00*%
%TF.ProjectId,logicanalyzer,6c6f6769-6361-46e6-916c-797a65722e6b,rev?*%
%TF.SameCoordinates,Original*%
%TF.FileFunction,Soldermask,Top*%
%TF.FilePolarity,Negative*%
%FSLAX46Y46*%
G04 Gerber Fmt 4.6, Leading zero omitted, Abs format (unit mm)*
G04 Created by KiCad (PCBNEW 8.0.6-1.fc41) date 2024-12-08 17:17:20*
%MOMM*%
%LPD*%
G01*
G04 APERTURE LIST*
G04 Aperture macros list*
%AMRoundRect*
0 Rectangle with rounded corners*
0 $1 Rounding radius*
0 $2 $3 $4 $5 $6 $7 $8 $9 X,Y pos of 4 corners*
0 Add a 4 corners polygon primitive as box body*
4,1,4,$2,$3,$4,$5,$6,$7,$8,$9,$2,$3,0*
0 Add four circle primitives for the rounded corners*
1,1,$1+$1,$2,$3*
1,1,$1+$1,$4,$5*
1,1,$1+$1,$6,$7*
1,1,$1+$1,$8,$9*
0 Add four rect primitives between the rounded corners*
20,1,$1+$1,$2,$3,$4,$5,0*
20,1,$1+$1,$4,$5,$6,$7,0*
20,1,$1+$1,$6,$7,$8,$9,0*
20,1,$1+$1,$8,$9,$2,$3,0*%
G04 Aperture macros list end*
%ADD10RoundRect,0.200000X-0.200000X-0.275000X0.200000X-0.275000X0.200000X0.275000X-0.200000X0.275000X0*%
%ADD11RoundRect,0.200000X0.200000X0.275000X-0.200000X0.275000X-0.200000X-0.275000X0.200000X-0.275000X0*%
%ADD12RoundRect,0.218750X0.218750X0.256250X-0.218750X0.256250X-0.218750X-0.256250X0.218750X-0.256250X0*%
%ADD13RoundRect,0.150000X-0.825000X-0.150000X0.825000X-0.150000X0.825000X0.150000X-0.825000X0.150000X0*%
%ADD14RoundRect,0.225000X0.225000X0.250000X-0.225000X0.250000X-0.225000X-0.250000X0.225000X-0.250000X0*%
%ADD15RoundRect,0.225000X-0.225000X-0.250000X0.225000X-0.250000X0.225000X0.250000X-0.225000X0.250000X0*%
%ADD16RoundRect,0.218750X-0.218750X-0.256250X0.218750X-0.256250X0.218750X0.256250X-0.218750X0.256250X0*%
%ADD17R,1.700000X1.700000*%
%ADD18O,1.700000X1.700000*%
%ADD19RoundRect,0.250000X-0.600000X-0.600000X0.600000X-0.600000X0.600000X0.600000X-0.600000X0.600000X0*%
%ADD20C,1.700000*%
G04 APERTURE END LIST*
D10*
%TO.C,R39*%
X76645000Y-71120000D03*
X78295000Y-71120000D03*
%TD*%
%TO.C,R27*%
X58294000Y-121920000D03*
X59944000Y-121920000D03*
%TD*%
D11*
%TO.C,R38*%
X82296000Y-82550000D03*
X80646000Y-82550000D03*
%TD*%
D12*
%TO.C,D8*%
X77470000Y-95758000D03*
X75895000Y-95758000D03*
%TD*%
D13*
%TO.C,U2*%
X91570000Y-54610000D03*
X91570000Y-55880000D03*
X91570000Y-57150000D03*
X91570000Y-58420000D03*
X91570000Y-59690000D03*
X91570000Y-60960000D03*
X91570000Y-62230000D03*
X91570000Y-63500000D03*
X96520000Y-63500000D03*
X96520000Y-62230000D03*
X96520000Y-60960000D03*
X96520000Y-59690000D03*
X96520000Y-58420000D03*
X96520000Y-57150000D03*
X96520000Y-55880000D03*
X96520000Y-54610000D03*
%TD*%
D10*
%TO.C,R29*%
X61596000Y-118110000D03*
X63246000Y-118110000D03*
%TD*%
D13*
%TO.C,U9*%
X68580000Y-87630000D03*
X68580000Y-88900000D03*
X68580000Y-90170000D03*
X68580000Y-91440000D03*
X68580000Y-92710000D03*
X68580000Y-93980000D03*
X68580000Y-95250000D03*
X68580000Y-96520000D03*
X73530000Y-96520000D03*
X73530000Y-95250000D03*
X73530000Y-93980000D03*
X73530000Y-92710000D03*
X73530000Y-91440000D03*
X73530000Y-90170000D03*
X73530000Y-88900000D03*
X73530000Y-87630000D03*
%TD*%
D14*
%TO.C,C1*%
X73660000Y-114300000D03*
X72110000Y-114300000D03*
%TD*%
D11*
%TO.C,R41*%
X82930000Y-66802000D03*
X81280000Y-66802000D03*
%TD*%
D15*
%TO.C,C5*%
X94970000Y-68580000D03*
X96520000Y-68580000D03*
%TD*%
%TO.C,C2*%
X72110000Y-68580000D03*
X73660000Y-68580000D03*
%TD*%
D16*
%TO.C,D5*%
X87884000Y-76200000D03*
X89459000Y-76200000D03*
%TD*%
D11*
%TO.C,R37*%
X81534000Y-91186000D03*
X79884000Y-91186000D03*
%TD*%
%TO.C,R43*%
X86868000Y-66548000D03*
X85218000Y-66548000D03*
%TD*%
D10*
%TO.C,R34*%
X83820000Y-72390000D03*
X85470000Y-72390000D03*
%TD*%
%TO.C,R25*%
X58420000Y-116840000D03*
X60070000Y-116840000D03*
%TD*%
D11*
%TO.C,R36*%
X81660000Y-95758000D03*
X80010000Y-95758000D03*
%TD*%
D15*
%TO.C,C7*%
X72110000Y-99060000D03*
X73660000Y-99060000D03*
%TD*%
D17*
%TO.C,J2*%
X55626000Y-127254000D03*
D18*
X55626000Y-124714000D03*
X55626000Y-122174000D03*
X55626000Y-119634000D03*
X55626000Y-117094000D03*
X55626000Y-114554000D03*
X55626000Y-112014000D03*
X55626000Y-109474000D03*
X55626000Y-106934000D03*
X55626000Y-104394000D03*
X55626000Y-101854000D03*
X55626000Y-99314000D03*
X55626000Y-96774000D03*
X55626000Y-94234000D03*
X55626000Y-91694000D03*
X55626000Y-89154000D03*
X55626000Y-86614000D03*
X55626000Y-84074000D03*
X55626000Y-81534000D03*
X55626000Y-78994000D03*
X55626000Y-76454000D03*
X55626000Y-73914000D03*
X55626000Y-71374000D03*
X55626000Y-68834000D03*
X55626000Y-66294000D03*
X55626000Y-63754000D03*
X55626000Y-61214000D03*
X55626000Y-58674000D03*
X55626000Y-56134000D03*
X55626000Y-53594000D03*
%TD*%
D13*
%TO.C,U3*%
X81280000Y-54610000D03*
X81280000Y-55880000D03*
X81280000Y-57150000D03*
X81280000Y-58420000D03*
X81280000Y-59690000D03*
X81280000Y-60960000D03*
X81280000Y-62230000D03*
X81280000Y-63500000D03*
X86230000Y-63500000D03*
X86230000Y-62230000D03*
X86230000Y-60960000D03*
X86230000Y-59690000D03*
X86230000Y-58420000D03*
X86230000Y-57150000D03*
X86230000Y-55880000D03*
X86230000Y-54610000D03*
%TD*%
D10*
%TO.C,R42*%
X75883000Y-53340000D03*
X77533000Y-53340000D03*
%TD*%
%TO.C,R31*%
X61468000Y-121666000D03*
X63118000Y-121666000D03*
%TD*%
D11*
%TO.C,R32*%
X104648000Y-76200000D03*
X102998000Y-76200000D03*
%TD*%
D15*
%TO.C,C4*%
X84810000Y-50800000D03*
X86360000Y-50800000D03*
%TD*%
D13*
%TO.C,U5*%
X68710000Y-54610000D03*
X68710000Y-55880000D03*
X68710000Y-57150000D03*
X68710000Y-58420000D03*
X68710000Y-59690000D03*
X68710000Y-60960000D03*
X68710000Y-62230000D03*
X68710000Y-63500000D03*
X73660000Y-63500000D03*
X73660000Y-62230000D03*
X73660000Y-60960000D03*
X73660000Y-59690000D03*
X73660000Y-58420000D03*
X73660000Y-57150000D03*
X73660000Y-55880000D03*
X73660000Y-54610000D03*
%TD*%
D16*
%TO.C,D3*%
X64770000Y-121666000D03*
X66345000Y-121666000D03*
%TD*%
D12*
%TO.C,D13*%
X77724000Y-66802000D03*
X76149000Y-66802000D03*
%TD*%
%TO.C,D11*%
X78232000Y-74422000D03*
X76657000Y-74422000D03*
%TD*%
%TO.C,D7*%
X77470000Y-99568000D03*
X75895000Y-99568000D03*
%TD*%
D16*
%TO.C,D6*%
X87884000Y-72390000D03*
X89459000Y-72390000D03*
%TD*%
D12*
%TO.C,D12*%
X78283000Y-78486000D03*
X76708000Y-78486000D03*
%TD*%
%TO.C,D9*%
X77470000Y-91186000D03*
X75895000Y-91186000D03*
%TD*%
%TO.C,D14*%
X77470000Y-57912000D03*
X75895000Y-57912000D03*
%TD*%
D16*
%TO.C,D2*%
X64719000Y-118110000D03*
X66294000Y-118110000D03*
%TD*%
D15*
%TO.C,C3*%
X72110000Y-50800000D03*
X73660000Y-50800000D03*
%TD*%
D11*
%TO.C,R24*%
X82422000Y-121920000D03*
X80772000Y-121920000D03*
%TD*%
D13*
%TO.C,U8*%
X68710000Y-71120000D03*
X68710000Y-72390000D03*
X68710000Y-73660000D03*
X68710000Y-74930000D03*
X68710000Y-76200000D03*
X68710000Y-77470000D03*
X68710000Y-78740000D03*
X68710000Y-80010000D03*
X73660000Y-80010000D03*
X73660000Y-78740000D03*
X73660000Y-77470000D03*
X73660000Y-76200000D03*
X73660000Y-74930000D03*
X73660000Y-73660000D03*
X73660000Y-72390000D03*
X73660000Y-71120000D03*
%TD*%
%TO.C,U1*%
X101730000Y-54610000D03*
X101730000Y-55880000D03*
X101730000Y-57150000D03*
X101730000Y-58420000D03*
X101730000Y-59690000D03*
X101730000Y-60960000D03*
X101730000Y-62230000D03*
X106680000Y-62230000D03*
X106680000Y-60960000D03*
X106680000Y-59690000D03*
X106680000Y-58420000D03*
X106680000Y-57150000D03*
X106680000Y-55880000D03*
X106680000Y-54610000D03*
%TD*%
D11*
%TO.C,R40*%
X82296000Y-79248000D03*
X80646000Y-79248000D03*
%TD*%
D13*
%TO.C,U4*%
X68580000Y-116840000D03*
X68580000Y-118110000D03*
X68580000Y-119380000D03*
X68580000Y-120650000D03*
X68580000Y-121920000D03*
X68580000Y-123190000D03*
X68580000Y-124460000D03*
X73530000Y-124460000D03*
X73530000Y-123190000D03*
X73530000Y-121920000D03*
X73530000Y-120650000D03*
X73530000Y-119380000D03*
X73530000Y-118110000D03*
X73530000Y-116840000D03*
%TD*%
D12*
%TO.C,D10*%
X78486000Y-82550000D03*
X76911000Y-82550000D03*
%TD*%
D10*
%TO.C,R26*%
X58420000Y-119380000D03*
X60070000Y-119380000D03*
%TD*%
D12*
%TO.C,D15*%
X77724000Y-62230000D03*
X76149000Y-62230000D03*
%TD*%
D15*
%TO.C,C6*%
X72110000Y-83820000D03*
X73660000Y-83820000D03*
%TD*%
D12*
%TO.C,D4*%
X100635000Y-76200000D03*
X99060000Y-76200000D03*
%TD*%
D11*
%TO.C,R35*%
X81660000Y-99568000D03*
X80010000Y-99568000D03*
%TD*%
D10*
%TO.C,R33*%
X83566000Y-76200000D03*
X85216000Y-76200000D03*
%TD*%
D13*
%TO.C,U6*%
X68580000Y-102870000D03*
X68580000Y-104140000D03*
X68580000Y-105410000D03*
X68580000Y-106680000D03*
X68580000Y-107950000D03*
X68580000Y-109220000D03*
X68580000Y-110490000D03*
X73530000Y-110490000D03*
X73530000Y-109220000D03*
X73530000Y-107950000D03*
X73530000Y-106680000D03*
X73530000Y-105410000D03*
X73530000Y-104140000D03*
X73530000Y-102870000D03*
%TD*%
D12*
%TO.C,D1*%
X77724000Y-121920000D03*
X76149000Y-121920000D03*
%TD*%
D19*
%TO.C,J1*%
X111760000Y-55880000D03*
D20*
X114300000Y-55880000D03*
X111760000Y-58420000D03*
X114300000Y-58420000D03*
X111760000Y-60960000D03*
X114300000Y-60960000D03*
X111760000Y-63500000D03*
X114300000Y-63500000D03*
X111760000Y-66040000D03*
X114300000Y-66040000D03*
X111760000Y-68580000D03*
X114300000Y-68580000D03*
X111760000Y-71120000D03*
X114300000Y-71120000D03*
X111760000Y-73660000D03*
X114300000Y-73660000D03*
X111760000Y-76200000D03*
X114300000Y-76200000D03*
X111760000Y-78740000D03*
X114300000Y-78740000D03*
X111760000Y-81280000D03*
X114300000Y-81280000D03*
X111760000Y-83820000D03*
X114300000Y-83820000D03*
X111760000Y-86360000D03*
X114300000Y-86360000D03*
X111760000Y-88900000D03*
X114300000Y-88900000D03*
X111760000Y-91440000D03*
X114300000Y-91440000D03*
X111760000Y-93980000D03*
X114300000Y-93980000D03*
X111760000Y-96520000D03*
X114300000Y-96520000D03*
%TD*%
D13*
%TO.C,U7*%
X91570000Y-71120000D03*
X91570000Y-72390000D03*
X91570000Y-73660000D03*
X91570000Y-74930000D03*
X91570000Y-76200000D03*
X91570000Y-77470000D03*
X91570000Y-78740000D03*
X96520000Y-78740000D03*
X96520000Y-77470000D03*
X96520000Y-76200000D03*
X96520000Y-74930000D03*
X96520000Y-73660000D03*
X96520000Y-72390000D03*
X96520000Y-71120000D03*
%TD*%
M02*
